<svg xmlns="http://www.w3.org/2000/svg" xmlns:xlink="http://www.w3.org/1999/xlink" width="500" zoomAndPan="magnify" viewBox="0 0 375 374.999991" height="500" preserveAspectRatio="xMidYMid meet" version="1.0"><defs><g/><clipPath id="ce7995cf38"><path d="M 116.804688 62.523438 L 258.367188 62.523438 L 258.367188 199.398438 L 116.804688 199.398438 Z M 116.804688 62.523438 " clip-rule="nonzero"/></clipPath></defs><g clip-path="url(#ce7995cf38)"><path fill="#ff3600" d="M 219.917969 139.082031 C 232 139.082031 241.871094 148.957031 241.871094 161.015625 C 241.871094 173.097656 232 182.96875 219.917969 182.96875 L 163.992188 182.96875 C 159.507812 182.96875 155.820312 186.636719 155.820312 191.136719 C 155.820312 195.621094 159.507812 199.304688 163.992188 199.304688 L 219.917969 199.304688 C 240.96875 199.304688 258.191406 182.082031 258.191406 161.015625 C 258.191406 148.835938 252.421875 137.9375 243.488281 130.914062 C 252.421875 123.894531 258.191406 112.980469 258.191406 100.796875 C 258.191406 79.75 240.96875 62.523438 219.917969 62.523438 L 163.992188 62.523438 C 159.507812 62.523438 155.820312 66.191406 155.820312 70.691406 C 155.820312 75.175781 159.507812 78.863281 163.992188 78.863281 L 219.917969 78.863281 C 232 78.863281 241.871094 88.734375 241.871094 100.796875 C 241.871094 112.875 232 122.746094 219.917969 122.746094 L 179.007812 122.746094 C 174.503906 122.746094 170.839844 126.414062 170.839844 130.914062 C 170.839844 135.398438 174.503906 139.082031 179.007812 139.082031 Z M 150.644531 169.1875 L 218.511719 169.1875 C 222.996094 169.1875 226.679688 165.519531 226.679688 161.015625 C 226.679688 156.535156 222.996094 152.847656 218.511719 152.847656 L 145.375 152.847656 C 140.894531 152.847656 137.226562 156.535156 137.226562 161.015625 C 137.226562 165.519531 140.894531 169.1875 145.375 169.1875 Z M 150.644531 108.964844 L 218.511719 108.964844 C 222.996094 108.964844 226.679688 105.296875 226.679688 100.796875 C 226.679688 96.3125 222.996094 92.625 218.511719 92.625 L 145.375 92.625 C 140.894531 92.625 137.226562 96.3125 137.226562 100.796875 C 137.226562 105.296875 140.894531 108.964844 145.375 108.964844 Z M 158.898438 130.914062 C 158.898438 126.414062 155.230469 122.746094 150.746094 122.746094 L 124.972656 122.746094 C 120.472656 122.746094 116.804688 126.414062 116.804688 130.914062 C 116.804688 135.398438 120.472656 139.082031 124.972656 139.082031 L 150.746094 139.082031 C 155.230469 139.082031 158.898438 135.398438 158.898438 130.914062 Z M 158.898438 130.914062 " fill-opacity="1" fill-rule="evenodd"/></g><g fill="#022151" fill-opacity="1"><g transform="translate(78.3733, 258.818493)"><g><path d="M 20.265625 0 L 3.15625 0 L 3.15625 -40.046875 L 19.53125 -40.046875 C 24.8125 -40.046875 28.550781 -38.890625 30.75 -36.578125 C 32.332031 -34.972656 33.125 -32.785156 33.125 -30.015625 C 33.125 -25.503906 31.335938 -22.515625 27.765625 -21.046875 C 30.140625 -20.523438 31.96875 -19.472656 33.25 -17.890625 C 34.53125 -16.316406 35.171875 -14.304688 35.171875 -11.859375 C 35.171875 -9.898438 34.785156 -8.140625 34.015625 -6.578125 C 33.242188 -5.023438 32.296875 -3.8125 31.171875 -2.9375 C 29.878906 -1.957031 28.488281 -1.265625 27 -0.859375 C 25.507812 -0.460938 24.144531 -0.21875 22.90625 -0.125 C 21.664062 -0.0390625 20.785156 0 20.265625 0 Z M 12.546875 -31.640625 L 12.546875 -23.875 L 18.734375 -23.875 C 22.054688 -23.875 23.71875 -25.1875 23.71875 -27.8125 C 23.71875 -29.113281 23.300781 -30.078125 22.46875 -30.703125 C 22.007812 -31.054688 21.40625 -31.300781 20.65625 -31.4375 C 19.90625 -31.570312 18.847656 -31.640625 17.484375 -31.640625 Z M 12.546875 -16.53125 L 12.546875 -8.390625 L 19.046875 -8.390625 C 20.242188 -8.390625 21.3125 -8.46875 22.25 -8.625 C 23.195312 -8.789062 23.96875 -9.117188 24.5625 -9.609375 C 25.363281 -10.234375 25.765625 -11.25 25.765625 -12.65625 C 25.765625 -14.289062 25.238281 -15.34375 24.1875 -15.8125 C 23.144531 -16.289062 21.660156 -16.53125 19.734375 -16.53125 Z M 12.546875 -16.53125 "/></g></g></g><g fill="#022151" fill-opacity="1"><g transform="translate(117.737919, 258.818493)"><g><path d="M 12.546875 0 L 3.15625 0 L 3.15625 -40.046875 L 12.546875 -40.046875 Z M 12.546875 0 "/></g></g></g><g fill="#022151" fill-opacity="1"><g transform="translate(135.950983, 258.818493)"><g><path d="M 12.546875 0 L 3.15625 0 L 3.15625 -40.046875 L 12.703125 -40.046875 L 28.078125 -15.75 L 28.078125 -40.046875 L 37.46875 -40.046875 L 37.46875 0 L 27.921875 0 L 12.546875 -24.453125 Z M 12.546875 0 "/></g></g></g><g fill="#022151" fill-opacity="1"><g transform="translate(179.042056, 258.818493)"><g><path d="M 10.078125 0 L 0.109375 0 L 13.796875 -40.046875 L 23.984375 -40.046875 L 37.6875 0 L 27.71875 0 L 25.5625 -7.1875 L 12.234375 -7.1875 Z M 18.890625 -29.59375 L 14.703125 -15.328125 L 23.09375 -15.328125 Z M 18.890625 -29.59375 "/></g></g></g><g fill="#022151" fill-opacity="1"><g transform="translate(219.298927, 258.818493)"><g><path d="M 28.96875 -17.15625 L 35.90625 0 L 25.984375 0 L 20.15625 -15.4375 L 12.546875 -15.4375 L 12.546875 0 L 3.15625 0 L 3.15625 -40.046875 L 22.046875 -40.046875 C 24.492188 -40.046875 26.671875 -39.640625 28.578125 -38.828125 C 30.484375 -38.023438 31.976562 -36.738281 33.0625 -34.96875 C 34.144531 -33.207031 34.6875 -30.875 34.6875 -27.96875 C 34.6875 -25.414062 34.171875 -23.226562 33.140625 -21.40625 C 32.109375 -19.59375 30.71875 -18.175781 28.96875 -17.15625 Z M 20.734375 -31.640625 L 12.546875 -31.640625 L 12.546875 -23.5625 L 20.734375 -23.5625 C 23.847656 -23.5625 25.40625 -24.925781 25.40625 -27.65625 C 25.40625 -30.3125 23.847656 -31.640625 20.734375 -31.640625 Z M 20.734375 -31.640625 "/></g></g></g><g fill="#022151" fill-opacity="1"><g transform="translate(258.925981, 258.818493)"><g><path d="M 23.78125 0 L 13.90625 0 L 13.90625 -15.90625 L -0.421875 -40.046875 L 10.546875 -40.046875 L 18.84375 -24.984375 L 27.140625 -40.046875 L 38.109375 -40.046875 L 23.78125 -15.90625 Z M 23.78125 0 "/></g></g></g><g fill="#022151" fill-opacity="1"><g transform="translate(124.619982, 294.209306)"><g><path d="M 14.203125 0 L 1.96875 0 L 1.96875 -18.9375 L 14.203125 -18.9375 L 14.203125 -16.890625 L 4.25 -16.890625 L 4.25 -10.53125 L 13.03125 -10.53125 L 13.03125 -8.484375 L 4.25 -8.484375 L 4.25 -2.0625 L 14.203125 -2.0625 Z M 14.203125 0 "/></g></g></g><g fill="#022151" fill-opacity="1"><g transform="translate(144.262175, 294.209306)"><g><path d="M 9.984375 0.25 C 8.492188 0.25 7.195312 -0.0078125 6.09375 -0.53125 C 4.988281 -1.050781 4.078125 -1.765625 3.359375 -2.671875 C 2.640625 -3.585938 2.101562 -4.628906 1.75 -5.796875 C 1.40625 -6.960938 1.234375 -8.191406 1.234375 -9.484375 C 1.234375 -10.773438 1.40625 -12 1.75 -13.15625 C 2.101562 -14.3125 2.640625 -15.34375 3.359375 -16.25 C 4.078125 -17.164062 4.988281 -17.882812 6.09375 -18.40625 C 7.195312 -18.925781 8.492188 -19.1875 9.984375 -19.1875 C 11.390625 -19.1875 12.625 -18.953125 13.6875 -18.484375 C 14.757812 -18.023438 15.625 -17.378906 16.28125 -16.546875 C 16.945312 -15.722656 17.367188 -14.773438 17.546875 -13.703125 L 15.078125 -13.703125 C 14.835938 -14.765625 14.257812 -15.601562 13.34375 -16.21875 C 12.4375 -16.84375 11.300781 -17.15625 9.9375 -17.15625 C 8.53125 -17.15625 7.347656 -16.820312 6.390625 -16.15625 C 5.441406 -15.5 4.726562 -14.585938 4.25 -13.421875 C 3.769531 -12.265625 3.53125 -10.953125 3.53125 -9.484375 C 3.53125 -8.015625 3.769531 -6.695312 4.25 -5.53125 C 4.726562 -4.363281 5.441406 -3.445312 6.390625 -2.78125 C 7.347656 -2.113281 8.53125 -1.78125 9.9375 -1.78125 C 11.300781 -1.78125 12.4375 -2.113281 13.34375 -2.78125 C 14.257812 -3.445312 14.835938 -4.429688 15.078125 -5.734375 L 17.546875 -5.734375 C 17.253906 -3.898438 16.445312 -2.441406 15.125 -1.359375 C 13.8125 -0.285156 12.097656 0.25 9.984375 0.25 Z M 9.984375 0.25 "/></g></g></g><g fill="#022151" fill-opacity="1"><g transform="translate(167.181813, 294.209306)"><g><path d="M 4.25 0 L 1.96875 0 L 1.96875 -18.9375 L 4.25 -18.9375 L 4.25 -10.546875 L 13.734375 -10.546875 L 13.734375 -18.9375 L 16.015625 -18.9375 L 16.015625 0 L 13.734375 0 L 13.734375 -8.515625 L 4.25 -8.515625 Z M 4.25 0 "/></g></g></g><g fill="#022151" fill-opacity="1"><g transform="translate(189.530374, 294.209306)"><g><path d="M 10.03125 0.25 C 8.539062 0.25 7.242188 -0.0078125 6.140625 -0.53125 C 5.046875 -1.050781 4.132812 -1.765625 3.40625 -2.671875 C 2.675781 -3.585938 2.128906 -4.628906 1.765625 -5.796875 C 1.410156 -6.960938 1.234375 -8.191406 1.234375 -9.484375 C 1.234375 -10.773438 1.410156 -12.003906 1.765625 -13.171875 C 2.128906 -14.335938 2.675781 -15.367188 3.40625 -16.265625 C 4.132812 -17.171875 5.046875 -17.882812 6.140625 -18.40625 C 7.242188 -18.925781 8.539062 -19.1875 10.03125 -19.1875 C 11.539062 -19.1875 12.847656 -18.925781 13.953125 -18.40625 C 15.054688 -17.882812 15.972656 -17.171875 16.703125 -16.265625 C 17.429688 -15.367188 17.972656 -14.335938 18.328125 -13.171875 C 18.691406 -12.003906 18.875 -10.773438 18.875 -9.484375 C 18.875 -8.191406 18.691406 -6.960938 18.328125 -5.796875 C 17.972656 -4.628906 17.429688 -3.585938 16.703125 -2.671875 C 15.972656 -1.765625 15.054688 -1.050781 13.953125 -0.53125 C 12.847656 -0.0078125 11.539062 0.25 10.03125 0.25 Z M 10.03125 -1.8125 C 11.457031 -1.8125 12.65625 -2.140625 13.625 -2.796875 C 14.601562 -3.460938 15.335938 -4.375 15.828125 -5.53125 C 16.328125 -6.695312 16.578125 -8.015625 16.578125 -9.484375 C 16.578125 -10.953125 16.328125 -12.257812 15.828125 -13.40625 C 15.335938 -14.5625 14.601562 -15.46875 13.625 -16.125 C 12.65625 -16.789062 11.457031 -17.125 10.03125 -17.125 C 8.632812 -17.125 7.453125 -16.789062 6.484375 -16.125 C 5.523438 -15.46875 4.789062 -14.5625 4.28125 -13.40625 C 3.78125 -12.257812 3.53125 -10.953125 3.53125 -9.484375 C 3.53125 -8.015625 3.78125 -6.695312 4.28125 -5.53125 C 4.789062 -4.375 5.523438 -3.460938 6.484375 -2.796875 C 7.453125 -2.140625 8.632812 -1.8125 10.03125 -1.8125 Z M 10.03125 -1.8125 "/></g></g></g><g fill="#022151" fill-opacity="1"><g transform="translate(214.014263, 294.209306)"><g><path d="M 14.203125 0 L 1.96875 0 L 1.96875 -18.9375 L 14.203125 -18.9375 L 14.203125 -16.890625 L 4.25 -16.890625 L 4.25 -10.53125 L 13.03125 -10.53125 L 13.03125 -8.484375 L 4.25 -8.484375 L 4.25 -2.0625 L 14.203125 -2.0625 Z M 14.203125 0 "/></g></g></g><g fill="#022151" fill-opacity="1"><g transform="translate(233.656457, 294.209306)"><g><path d="M 8.8125 0.25 C 7.570312 0.25 6.394531 0.046875 5.28125 -0.359375 C 4.175781 -0.765625 3.242188 -1.410156 2.484375 -2.296875 C 1.734375 -3.179688 1.253906 -4.328125 1.046875 -5.734375 L 3.359375 -5.734375 C 3.554688 -4.722656 3.941406 -3.929688 4.515625 -3.359375 C 5.097656 -2.785156 5.78125 -2.378906 6.5625 -2.140625 C 7.351562 -1.898438 8.132812 -1.78125 8.90625 -1.78125 C 10.238281 -1.78125 11.28125 -2.054688 12.03125 -2.609375 C 12.78125 -3.171875 13.15625 -4.015625 13.15625 -5.140625 C 13.15625 -5.816406 13.007812 -6.367188 12.71875 -6.796875 C 12.4375 -7.234375 12.046875 -7.582031 11.546875 -7.84375 C 11.046875 -8.113281 10.484375 -8.328125 9.859375 -8.484375 C 9.242188 -8.648438 8.597656 -8.8125 7.921875 -8.96875 C 7.171875 -9.113281 6.4375 -9.285156 5.71875 -9.484375 C 5 -9.679688 4.34375 -9.953125 3.75 -10.296875 C 3.164062 -10.648438 2.695312 -11.117188 2.34375 -11.703125 C 1.988281 -12.296875 1.8125 -13.054688 1.8125 -13.984375 C 1.8125 -15.054688 2.070312 -15.976562 2.59375 -16.75 C 3.113281 -17.53125 3.835938 -18.128906 4.765625 -18.546875 C 5.691406 -18.972656 6.773438 -19.1875 8.015625 -19.1875 C 9.097656 -19.1875 10.117188 -19 11.078125 -18.625 C 12.046875 -18.257812 12.875 -17.675781 13.5625 -16.875 C 14.25 -16.082031 14.691406 -15.035156 14.890625 -13.734375 L 12.6875 -13.734375 C 12.507812 -14.585938 12.175781 -15.265625 11.6875 -15.765625 C 11.207031 -16.265625 10.644531 -16.617188 10 -16.828125 C 9.351562 -17.046875 8.6875 -17.15625 8 -17.15625 C 6.71875 -17.15625 5.742188 -16.882812 5.078125 -16.34375 C 4.421875 -15.8125 4.09375 -15.085938 4.09375 -14.171875 C 4.09375 -13.410156 4.320312 -12.816406 4.78125 -12.390625 C 5.238281 -11.972656 5.832031 -11.648438 6.5625 -11.421875 C 7.300781 -11.203125 8.09375 -11.003906 8.9375 -10.828125 C 9.71875 -10.660156 10.492188 -10.46875 11.265625 -10.25 C 12.035156 -10.039062 12.734375 -9.742188 13.359375 -9.359375 C 13.984375 -8.984375 14.484375 -8.472656 14.859375 -7.828125 C 15.242188 -7.179688 15.4375 -6.332031 15.4375 -5.28125 C 15.4375 -3.613281 14.875 -2.273438 13.75 -1.265625 C 12.625 -0.253906 10.976562 0.25 8.8125 0.25 Z M 8.8125 0.25 "/></g></g></g><g fill="#737373" fill-opacity="1"><g transform="translate(24.214343, 335.932185)"><g><path d="M 7.90625 0.21875 C 6.894531 0.21875 5.960938 0.046875 5.109375 -0.296875 C 4.265625 -0.640625 3.53125 -1.125 2.90625 -1.75 C 2.28125 -2.382812 1.796875 -3.128906 1.453125 -3.984375 C 1.109375 -4.835938 0.9375 -5.773438 0.9375 -6.796875 C 0.9375 -7.816406 1.109375 -8.753906 1.453125 -9.609375 C 1.796875 -10.460938 2.28125 -11.203125 2.90625 -11.828125 C 3.53125 -12.460938 4.265625 -12.953125 5.109375 -13.296875 C 5.960938 -13.640625 6.894531 -13.8125 7.90625 -13.8125 C 8.957031 -13.8125 9.914062 -13.613281 10.78125 -13.21875 C 11.65625 -12.820312 12.398438 -12.265625 13.015625 -11.546875 C 13.628906 -10.828125 14.066406 -9.976562 14.328125 -9 L 12.609375 -9 C 12.242188 -9.976562 11.644531 -10.742188 10.8125 -11.296875 C 9.988281 -11.859375 9.019531 -12.140625 7.90625 -12.140625 C 6.894531 -12.140625 5.992188 -11.910156 5.203125 -11.453125 C 4.410156 -11.003906 3.789062 -10.375 3.34375 -9.5625 C 2.90625 -8.75 2.6875 -7.828125 2.6875 -6.796875 C 2.6875 -5.742188 2.90625 -4.816406 3.34375 -4.015625 C 3.789062 -3.210938 4.410156 -2.582031 5.203125 -2.125 C 5.992188 -1.675781 6.894531 -1.453125 7.90625 -1.453125 C 9.039062 -1.453125 10.03125 -1.742188 10.875 -2.328125 C 11.71875 -2.921875 12.3125 -3.742188 12.65625 -4.796875 L 14.40625 -4.796875 C 14.144531 -3.773438 13.703125 -2.890625 13.078125 -2.140625 C 12.460938 -1.390625 11.710938 -0.804688 10.828125 -0.390625 C 9.941406 0.015625 8.96875 0.21875 7.90625 0.21875 Z M 7.90625 0.21875 "/></g></g></g><g fill="#737373" fill-opacity="1"><g transform="translate(40.89956, 335.932185)"><g><path d="M 6.390625 0.234375 C 5.328125 0.234375 4.378906 -0.00390625 3.546875 -0.484375 C 2.710938 -0.960938 2.050781 -1.613281 1.5625 -2.4375 C 1.070312 -3.257812 0.828125 -4.195312 0.828125 -5.25 C 0.828125 -6.289062 1.070312 -7.222656 1.5625 -8.046875 C 2.050781 -8.878906 2.710938 -9.53125 3.546875 -10 C 4.378906 -10.476562 5.328125 -10.71875 6.390625 -10.71875 C 7.453125 -10.71875 8.398438 -10.476562 9.234375 -10 C 10.078125 -9.519531 10.742188 -8.867188 11.234375 -8.046875 C 11.722656 -7.222656 11.96875 -6.289062 11.96875 -5.25 C 11.96875 -4.195312 11.722656 -3.257812 11.234375 -2.4375 C 10.742188 -1.613281 10.078125 -0.960938 9.234375 -0.484375 C 8.398438 -0.00390625 7.453125 0.234375 6.390625 0.234375 Z M 6.390625 -1.359375 C 7.140625 -1.359375 7.804688 -1.523438 8.390625 -1.859375 C 8.972656 -2.203125 9.429688 -2.664062 9.765625 -3.25 C 10.109375 -3.832031 10.28125 -4.5 10.28125 -5.25 C 10.28125 -6 10.109375 -6.664062 9.765625 -7.25 C 9.429688 -7.832031 8.972656 -8.289062 8.390625 -8.625 C 7.804688 -8.957031 7.140625 -9.125 6.390625 -9.125 C 5.640625 -9.125 4.972656 -8.957031 4.390625 -8.625 C 3.804688 -8.289062 3.347656 -7.832031 3.015625 -7.25 C 2.691406 -6.664062 2.53125 -6 2.53125 -5.25 C 2.53125 -4.5 2.691406 -3.832031 3.015625 -3.25 C 3.347656 -2.664062 3.804688 -2.203125 4.390625 -1.859375 C 4.984375 -1.523438 5.648438 -1.359375 6.390625 -1.359375 Z M 6.390625 -1.359375 "/></g></g></g><g fill="#737373" fill-opacity="1"><g transform="translate(55.31218, 335.932185)"><g><path d="M 6.921875 -10.71875 C 7.742188 -10.71875 8.457031 -10.523438 9.0625 -10.140625 C 9.675781 -9.765625 10.144531 -9.238281 10.46875 -8.5625 C 10.789062 -7.894531 10.953125 -7.128906 10.953125 -6.265625 L 10.953125 0 L 9.296875 0 L 9.296875 -5.890625 C 9.296875 -6.960938 9.050781 -7.78125 8.5625 -8.34375 C 8.082031 -8.914062 7.390625 -9.203125 6.484375 -9.203125 C 5.890625 -9.203125 5.351562 -9.050781 4.875 -8.75 C 4.394531 -8.445312 4.015625 -8.03125 3.734375 -7.5 C 3.460938 -6.96875 3.328125 -6.378906 3.328125 -5.734375 L 3.328125 0 L 1.671875 0 L 1.671875 -10.484375 L 2.828125 -10.484375 L 3.171875 -8.84375 C 3.554688 -9.414062 4.070312 -9.867188 4.71875 -10.203125 C 5.363281 -10.546875 6.097656 -10.71875 6.921875 -10.71875 Z M 6.921875 -10.71875 "/></g></g></g><g fill="#737373" fill-opacity="1"><g transform="translate(69.394595, 335.932185)"><g><path d="M 6.921875 -10.71875 C 7.742188 -10.71875 8.457031 -10.523438 9.0625 -10.140625 C 9.675781 -9.765625 10.144531 -9.238281 10.46875 -8.5625 C 10.789062 -7.894531 10.953125 -7.128906 10.953125 -6.265625 L 10.953125 0 L 9.296875 0 L 9.296875 -5.890625 C 9.296875 -6.960938 9.050781 -7.78125 8.5625 -8.34375 C 8.082031 -8.914062 7.390625 -9.203125 6.484375 -9.203125 C 5.890625 -9.203125 5.351562 -9.050781 4.875 -8.75 C 4.394531 -8.445312 4.015625 -8.03125 3.734375 -7.5 C 3.460938 -6.96875 3.328125 -6.378906 3.328125 -5.734375 L 3.328125 0 L 1.671875 0 L 1.671875 -10.484375 L 2.828125 -10.484375 L 3.171875 -8.84375 C 3.554688 -9.414062 4.070312 -9.867188 4.71875 -10.203125 C 5.363281 -10.546875 6.097656 -10.71875 6.921875 -10.71875 Z M 6.921875 -10.71875 "/></g></g></g><g fill="#737373" fill-opacity="1"><g transform="translate(83.477011, 335.932185)"><g><path d="M 11.484375 -5.203125 C 11.484375 -5.097656 11.472656 -5 11.453125 -4.90625 C 11.441406 -4.8125 11.4375 -4.710938 11.4375 -4.609375 L 2.484375 -4.609375 C 2.617188 -3.628906 3.019531 -2.84375 3.6875 -2.25 C 4.363281 -1.664062 5.191406 -1.375 6.171875 -1.375 C 6.898438 -1.375 7.546875 -1.535156 8.109375 -1.859375 C 8.679688 -2.179688 9.128906 -2.628906 9.453125 -3.203125 L 11.1875 -3.203125 C 10.75 -2.117188 10.085938 -1.273438 9.203125 -0.671875 C 8.328125 -0.0664062 7.316406 0.234375 6.171875 0.234375 C 5.160156 0.234375 4.25 -0.00390625 3.4375 -0.484375 C 2.632812 -0.960938 2 -1.613281 1.53125 -2.4375 C 1.0625 -3.269531 0.828125 -4.207031 0.828125 -5.25 C 0.828125 -6.28125 1.0625 -7.207031 1.53125 -8.03125 C 2 -8.863281 2.632812 -9.519531 3.4375 -10 C 4.25 -10.476562 5.160156 -10.71875 6.171875 -10.71875 C 7.234375 -10.71875 8.160156 -10.472656 8.953125 -9.984375 C 9.753906 -9.492188 10.375 -8.828125 10.8125 -7.984375 C 11.257812 -7.148438 11.484375 -6.222656 11.484375 -5.203125 Z M 6.171875 -9.140625 C 5.234375 -9.140625 4.4375 -8.863281 3.78125 -8.3125 C 3.125 -7.769531 2.707031 -7.046875 2.53125 -6.140625 L 9.8125 -6.140625 C 9.644531 -7.066406 9.226562 -7.796875 8.5625 -8.328125 C 7.90625 -8.867188 7.109375 -9.140625 6.171875 -9.140625 Z M 6.171875 -9.140625 "/></g></g></g><g fill="#737373" fill-opacity="1"><g transform="translate(97.365173, 335.932185)"><g><path d="M 6.296875 0.234375 C 5.253906 0.234375 4.320312 -0.00390625 3.5 -0.484375 C 2.675781 -0.960938 2.023438 -1.613281 1.546875 -2.4375 C 1.066406 -3.269531 0.828125 -4.207031 0.828125 -5.25 C 0.828125 -6.289062 1.066406 -7.222656 1.546875 -8.046875 C 2.023438 -8.867188 2.675781 -9.519531 3.5 -10 C 4.320312 -10.476562 5.253906 -10.71875 6.296875 -10.71875 C 7.117188 -10.71875 7.875 -10.5625 8.5625 -10.25 C 9.257812 -9.9375 9.851562 -9.5 10.34375 -8.9375 C 10.832031 -8.375 11.175781 -7.710938 11.375 -6.953125 L 9.75 -6.953125 C 9.4375 -7.628906 8.972656 -8.160156 8.359375 -8.546875 C 7.742188 -8.929688 7.054688 -9.125 6.296875 -9.125 C 5.566406 -9.125 4.914062 -8.953125 4.34375 -8.609375 C 3.78125 -8.265625 3.335938 -7.796875 3.015625 -7.203125 C 2.691406 -6.617188 2.53125 -5.96875 2.53125 -5.25 C 2.53125 -4.519531 2.691406 -3.859375 3.015625 -3.265625 C 3.347656 -2.679688 3.796875 -2.21875 4.359375 -1.875 C 4.929688 -1.53125 5.578125 -1.359375 6.296875 -1.359375 C 7.054688 -1.359375 7.738281 -1.554688 8.34375 -1.953125 C 8.945312 -2.347656 9.410156 -2.894531 9.734375 -3.59375 L 11.40625 -3.59375 C 11.195312 -2.8125 10.84375 -2.132812 10.34375 -1.5625 C 9.851562 -1 9.257812 -0.554688 8.5625 -0.234375 C 7.863281 0.078125 7.109375 0.234375 6.296875 0.234375 Z M 6.296875 0.234375 "/></g></g></g><g fill="#737373" fill-opacity="1"><g transform="translate(111.020248, 335.932185)"><g><path d="M 6 -1.53125 L 7.140625 -1.53125 L 7.140625 0 L 5.78125 0 C 4.65625 0 3.769531 -0.328125 3.125 -0.984375 C 2.476562 -1.640625 2.15625 -2.535156 2.15625 -3.671875 L 2.15625 -9 L 0.3125 -9 L 0.3125 -9.28125 L 3.546875 -12.703125 L 3.8125 -12.703125 L 3.8125 -10.484375 L 7.09375 -10.484375 L 7.09375 -9 L 3.8125 -9 L 3.8125 -3.734375 C 3.8125 -3.015625 4 -2.46875 4.375 -2.09375 C 4.75 -1.71875 5.289062 -1.53125 6 -1.53125 Z M 6 -1.53125 "/></g></g></g><g fill="#737373" fill-opacity="1"><g transform="translate(120.32438, 335.932185)"><g/></g></g><g fill="#737373" fill-opacity="1"><g transform="translate(127.025711, 335.932185)"><g><path d="M 3.328125 -3.984375 C 2.847656 -3.984375 2.441406 -4.144531 2.109375 -4.46875 C 1.773438 -4.800781 1.609375 -5.207031 1.609375 -5.6875 C 1.609375 -6.175781 1.773438 -6.582031 2.109375 -6.90625 C 2.441406 -7.238281 2.847656 -7.40625 3.328125 -7.40625 C 3.816406 -7.40625 4.21875 -7.238281 4.53125 -6.90625 C 4.851562 -6.582031 5.015625 -6.175781 5.015625 -5.6875 C 5.015625 -5.207031 4.851562 -4.800781 4.53125 -4.46875 C 4.21875 -4.144531 3.816406 -3.984375 3.328125 -3.984375 Z M 3.328125 -3.984375 "/></g></g></g><g fill="#737373" fill-opacity="1"><g transform="translate(135.280949, 335.932185)"><g/></g></g><g fill="#737373" fill-opacity="1"><g transform="translate(141.982279, 335.932185)"><g><path d="M 7.90625 0.21875 C 6.894531 0.21875 5.960938 0.046875 5.109375 -0.296875 C 4.265625 -0.640625 3.53125 -1.125 2.90625 -1.75 C 2.28125 -2.382812 1.796875 -3.128906 1.453125 -3.984375 C 1.109375 -4.835938 0.9375 -5.773438 0.9375 -6.796875 C 0.9375 -7.816406 1.109375 -8.753906 1.453125 -9.609375 C 1.796875 -10.460938 2.28125 -11.203125 2.90625 -11.828125 C 3.53125 -12.460938 4.265625 -12.953125 5.109375 -13.296875 C 5.960938 -13.640625 6.894531 -13.8125 7.90625 -13.8125 C 8.957031 -13.8125 9.914062 -13.613281 10.78125 -13.21875 C 11.65625 -12.820312 12.398438 -12.265625 13.015625 -11.546875 C 13.628906 -10.828125 14.066406 -9.976562 14.328125 -9 L 12.609375 -9 C 12.242188 -9.976562 11.644531 -10.742188 10.8125 -11.296875 C 9.988281 -11.859375 9.019531 -12.140625 7.90625 -12.140625 C 6.894531 -12.140625 5.992188 -11.910156 5.203125 -11.453125 C 4.410156 -11.003906 3.789062 -10.375 3.34375 -9.5625 C 2.90625 -8.75 2.6875 -7.828125 2.6875 -6.796875 C 2.6875 -5.742188 2.90625 -4.816406 3.34375 -4.015625 C 3.789062 -3.210938 4.410156 -2.582031 5.203125 -2.125 C 5.992188 -1.675781 6.894531 -1.453125 7.90625 -1.453125 C 9.039062 -1.453125 10.03125 -1.742188 10.875 -2.328125 C 11.71875 -2.921875 12.3125 -3.742188 12.65625 -4.796875 L 14.40625 -4.796875 C 14.144531 -3.773438 13.703125 -2.890625 13.078125 -2.140625 C 12.460938 -1.390625 11.710938 -0.804688 10.828125 -0.390625 C 9.941406 0.015625 8.96875 0.21875 7.90625 0.21875 Z M 7.90625 0.21875 "/></g></g></g><g fill="#737373" fill-opacity="1"><g transform="translate(158.667493, 335.932185)"><g><path d="M 6.390625 0.234375 C 5.328125 0.234375 4.378906 -0.00390625 3.546875 -0.484375 C 2.710938 -0.960938 2.050781 -1.613281 1.5625 -2.4375 C 1.070312 -3.257812 0.828125 -4.195312 0.828125 -5.25 C 0.828125 -6.289062 1.070312 -7.222656 1.5625 -8.046875 C 2.050781 -8.878906 2.710938 -9.53125 3.546875 -10 C 4.378906 -10.476562 5.328125 -10.71875 6.390625 -10.71875 C 7.453125 -10.71875 8.398438 -10.476562 9.234375 -10 C 10.078125 -9.519531 10.742188 -8.867188 11.234375 -8.046875 C 11.722656 -7.222656 11.96875 -6.289062 11.96875 -5.25 C 11.96875 -4.195312 11.722656 -3.257812 11.234375 -2.4375 C 10.742188 -1.613281 10.078125 -0.960938 9.234375 -0.484375 C 8.398438 -0.00390625 7.453125 0.234375 6.390625 0.234375 Z M 6.390625 -1.359375 C 7.140625 -1.359375 7.804688 -1.523438 8.390625 -1.859375 C 8.972656 -2.203125 9.429688 -2.664062 9.765625 -3.25 C 10.109375 -3.832031 10.28125 -4.5 10.28125 -5.25 C 10.28125 -6 10.109375 -6.664062 9.765625 -7.25 C 9.429688 -7.832031 8.972656 -8.289062 8.390625 -8.625 C 7.804688 -8.957031 7.140625 -9.125 6.390625 -9.125 C 5.640625 -9.125 4.972656 -8.957031 4.390625 -8.625 C 3.804688 -8.289062 3.347656 -7.832031 3.015625 -7.25 C 2.691406 -6.664062 2.53125 -6 2.53125 -5.25 C 2.53125 -4.5 2.691406 -3.832031 3.015625 -3.25 C 3.347656 -2.664062 3.804688 -2.203125 4.390625 -1.859375 C 4.984375 -1.523438 5.648438 -1.359375 6.390625 -1.359375 Z M 6.390625 -1.359375 "/></g></g></g><g fill="#737373" fill-opacity="1"><g transform="translate(173.08011, 335.932185)"><g><path d="M 6.921875 -10.71875 C 7.742188 -10.71875 8.457031 -10.523438 9.0625 -10.140625 C 9.675781 -9.765625 10.144531 -9.238281 10.46875 -8.5625 C 10.789062 -7.894531 10.953125 -7.128906 10.953125 -6.265625 L 10.953125 0 L 9.296875 0 L 9.296875 -5.890625 C 9.296875 -6.960938 9.050781 -7.78125 8.5625 -8.34375 C 8.082031 -8.914062 7.390625 -9.203125 6.484375 -9.203125 C 5.890625 -9.203125 5.351562 -9.050781 4.875 -8.75 C 4.394531 -8.445312 4.015625 -8.03125 3.734375 -7.5 C 3.460938 -6.96875 3.328125 -6.378906 3.328125 -5.734375 L 3.328125 0 L 1.671875 0 L 1.671875 -10.484375 L 2.828125 -10.484375 L 3.171875 -8.84375 C 3.554688 -9.414062 4.070312 -9.867188 4.71875 -10.203125 C 5.363281 -10.546875 6.097656 -10.71875 6.921875 -10.71875 Z M 6.921875 -10.71875 "/></g></g></g><g fill="#737373" fill-opacity="1"><g transform="translate(187.162521, 335.932185)"><g><path d="M 9.0625 -10.484375 L 10.765625 -10.484375 L 6.328125 0 L 4.84375 0 L 0.296875 -10.484375 L 2.015625 -10.484375 L 5.578125 -2.140625 Z M 9.0625 -10.484375 "/></g></g></g><g fill="#737373" fill-opacity="1"><g transform="translate(199.885261, 335.932185)"><g><path d="M 11.484375 -5.203125 C 11.484375 -5.097656 11.472656 -5 11.453125 -4.90625 C 11.441406 -4.8125 11.4375 -4.710938 11.4375 -4.609375 L 2.484375 -4.609375 C 2.617188 -3.628906 3.019531 -2.84375 3.6875 -2.25 C 4.363281 -1.664062 5.191406 -1.375 6.171875 -1.375 C 6.898438 -1.375 7.546875 -1.535156 8.109375 -1.859375 C 8.679688 -2.179688 9.128906 -2.628906 9.453125 -3.203125 L 11.1875 -3.203125 C 10.75 -2.117188 10.085938 -1.273438 9.203125 -0.671875 C 8.328125 -0.0664062 7.316406 0.234375 6.171875 0.234375 C 5.160156 0.234375 4.25 -0.00390625 3.4375 -0.484375 C 2.632812 -0.960938 2 -1.613281 1.53125 -2.4375 C 1.0625 -3.269531 0.828125 -4.207031 0.828125 -5.25 C 0.828125 -6.28125 1.0625 -7.207031 1.53125 -8.03125 C 2 -8.863281 2.632812 -9.519531 3.4375 -10 C 4.25 -10.476562 5.160156 -10.71875 6.171875 -10.71875 C 7.234375 -10.71875 8.160156 -10.472656 8.953125 -9.984375 C 9.753906 -9.492188 10.375 -8.828125 10.8125 -7.984375 C 11.257812 -7.148438 11.484375 -6.222656 11.484375 -5.203125 Z M 6.171875 -9.140625 C 5.234375 -9.140625 4.4375 -8.863281 3.78125 -8.3125 C 3.125 -7.769531 2.707031 -7.046875 2.53125 -6.140625 L 9.8125 -6.140625 C 9.644531 -7.066406 9.226562 -7.796875 8.5625 -8.328125 C 7.90625 -8.867188 7.109375 -9.140625 6.171875 -9.140625 Z M 6.171875 -9.140625 "/></g></g></g><g fill="#737373" fill-opacity="1"><g transform="translate(213.773423, 335.932185)"><g><path d="M 9.328125 -10.484375 L 11.09375 -10.484375 L 6.09375 0.421875 C 5.71875 1.253906 5.335938 1.910156 4.953125 2.390625 C 4.578125 2.878906 4.148438 3.226562 3.671875 3.4375 C 3.203125 3.644531 2.640625 3.75 1.984375 3.75 L 0.984375 3.75 L 0.984375 2.25 L 1.84375 2.25 C 2.3125 2.25 2.691406 2.1875 2.984375 2.0625 C 3.285156 1.945312 3.554688 1.734375 3.796875 1.421875 C 4.035156 1.109375 4.296875 0.660156 4.578125 0.078125 L 4.953125 -0.71875 L 0.296875 -10.484375 L 2.09375 -10.484375 L 5.828125 -2.546875 Z M 9.328125 -10.484375 "/></g></g></g><g fill="#737373" fill-opacity="1"><g transform="translate(226.768089, 335.932185)"><g/></g></g><g fill="#737373" fill-opacity="1"><g transform="translate(233.469419, 335.932185)"><g><path d="M 3.328125 -3.984375 C 2.847656 -3.984375 2.441406 -4.144531 2.109375 -4.46875 C 1.773438 -4.800781 1.609375 -5.207031 1.609375 -5.6875 C 1.609375 -6.175781 1.773438 -6.582031 2.109375 -6.90625 C 2.441406 -7.238281 2.847656 -7.40625 3.328125 -7.40625 C 3.816406 -7.40625 4.21875 -7.238281 4.53125 -6.90625 C 4.851562 -6.582031 5.015625 -6.175781 5.015625 -5.6875 C 5.015625 -5.207031 4.851562 -4.800781 4.53125 -4.46875 C 4.21875 -4.144531 3.816406 -3.984375 3.328125 -3.984375 Z M 3.328125 -3.984375 "/></g></g></g><g fill="#737373" fill-opacity="1"><g transform="translate(241.724657, 335.932185)"><g/></g></g><g fill="#737373" fill-opacity="1"><g transform="translate(248.425988, 335.932185)"><g><path d="M 7.90625 0.21875 C 6.894531 0.21875 5.960938 0.046875 5.109375 -0.296875 C 4.265625 -0.640625 3.53125 -1.125 2.90625 -1.75 C 2.28125 -2.382812 1.796875 -3.128906 1.453125 -3.984375 C 1.109375 -4.835938 0.9375 -5.773438 0.9375 -6.796875 C 0.9375 -7.816406 1.109375 -8.753906 1.453125 -9.609375 C 1.796875 -10.460938 2.28125 -11.203125 2.90625 -11.828125 C 3.53125 -12.460938 4.265625 -12.953125 5.109375 -13.296875 C 5.960938 -13.640625 6.894531 -13.8125 7.90625 -13.8125 C 8.957031 -13.8125 9.914062 -13.613281 10.78125 -13.21875 C 11.65625 -12.820312 12.398438 -12.265625 13.015625 -11.546875 C 13.628906 -10.828125 14.066406 -9.976562 14.328125 -9 L 12.609375 -9 C 12.242188 -9.976562 11.644531 -10.742188 10.8125 -11.296875 C 9.988281 -11.859375 9.019531 -12.140625 7.90625 -12.140625 C 6.894531 -12.140625 5.992188 -11.910156 5.203125 -11.453125 C 4.410156 -11.003906 3.789062 -10.375 3.34375 -9.5625 C 2.90625 -8.75 2.6875 -7.828125 2.6875 -6.796875 C 2.6875 -5.742188 2.90625 -4.816406 3.34375 -4.015625 C 3.789062 -3.210938 4.410156 -2.582031 5.203125 -2.125 C 5.992188 -1.675781 6.894531 -1.453125 7.90625 -1.453125 C 9.039062 -1.453125 10.03125 -1.742188 10.875 -2.328125 C 11.71875 -2.921875 12.3125 -3.742188 12.65625 -4.796875 L 14.40625 -4.796875 C 14.144531 -3.773438 13.703125 -2.890625 13.078125 -2.140625 C 12.460938 -1.390625 11.710938 -0.804688 10.828125 -0.390625 C 9.941406 0.015625 8.96875 0.21875 7.90625 0.21875 Z M 7.90625 0.21875 "/></g></g></g><g fill="#737373" fill-opacity="1"><g transform="translate(265.111201, 335.932185)"><g><path d="M 6.390625 0.234375 C 5.328125 0.234375 4.378906 -0.00390625 3.546875 -0.484375 C 2.710938 -0.960938 2.050781 -1.613281 1.5625 -2.4375 C 1.070312 -3.257812 0.828125 -4.195312 0.828125 -5.25 C 0.828125 -6.289062 1.070312 -7.222656 1.5625 -8.046875 C 2.050781 -8.878906 2.710938 -9.53125 3.546875 -10 C 4.378906 -10.476562 5.328125 -10.71875 6.390625 -10.71875 C 7.453125 -10.71875 8.398438 -10.476562 9.234375 -10 C 10.078125 -9.519531 10.742188 -8.867188 11.234375 -8.046875 C 11.722656 -7.222656 11.96875 -6.289062 11.96875 -5.25 C 11.96875 -4.195312 11.722656 -3.257812 11.234375 -2.4375 C 10.742188 -1.613281 10.078125 -0.960938 9.234375 -0.484375 C 8.398438 -0.00390625 7.453125 0.234375 6.390625 0.234375 Z M 6.390625 -1.359375 C 7.140625 -1.359375 7.804688 -1.523438 8.390625 -1.859375 C 8.972656 -2.203125 9.429688 -2.664062 9.765625 -3.25 C 10.109375 -3.832031 10.28125 -4.5 10.28125 -5.25 C 10.28125 -6 10.109375 -6.664062 9.765625 -7.25 C 9.429688 -7.832031 8.972656 -8.289062 8.390625 -8.625 C 7.804688 -8.957031 7.140625 -9.125 6.390625 -9.125 C 5.640625 -9.125 4.972656 -8.957031 4.390625 -8.625 C 3.804688 -8.289062 3.347656 -7.832031 3.015625 -7.25 C 2.691406 -6.664062 2.53125 -6 2.53125 -5.25 C 2.53125 -4.5 2.691406 -3.832031 3.015625 -3.25 C 3.347656 -2.664062 3.804688 -2.203125 4.390625 -1.859375 C 4.984375 -1.523438 5.648438 -1.359375 6.390625 -1.359375 Z M 6.390625 -1.359375 "/></g></g></g><g fill="#737373" fill-opacity="1"><g transform="translate(279.523832, 335.932185)"><g><path d="M 6.921875 -10.71875 C 7.742188 -10.71875 8.457031 -10.523438 9.0625 -10.140625 C 9.675781 -9.765625 10.144531 -9.238281 10.46875 -8.5625 C 10.789062 -7.894531 10.953125 -7.128906 10.953125 -6.265625 L 10.953125 0 L 9.296875 0 L 9.296875 -5.890625 C 9.296875 -6.960938 9.050781 -7.78125 8.5625 -8.34375 C 8.082031 -8.914062 7.390625 -9.203125 6.484375 -9.203125 C 5.890625 -9.203125 5.351562 -9.050781 4.875 -8.75 C 4.394531 -8.445312 4.015625 -8.03125 3.734375 -7.5 C 3.460938 -6.96875 3.328125 -6.378906 3.328125 -5.734375 L 3.328125 0 L 1.671875 0 L 1.671875 -10.484375 L 2.828125 -10.484375 L 3.171875 -8.84375 C 3.554688 -9.414062 4.070312 -9.867188 4.71875 -10.203125 C 5.363281 -10.546875 6.097656 -10.71875 6.921875 -10.71875 Z M 6.921875 -10.71875 "/></g></g></g><g fill="#737373" fill-opacity="1"><g transform="translate(293.606244, 335.932185)"><g><path d="M 10.65625 -10.484375 L 11.78125 -10.484375 L 11.78125 3.75 L 10.140625 3.75 L 10.140625 -1.390625 C 9.660156 -0.890625 9.085938 -0.492188 8.421875 -0.203125 C 7.753906 0.0859375 7.023438 0.234375 6.234375 0.234375 C 5.179688 0.234375 4.25 -0.00390625 3.4375 -0.484375 C 2.632812 -0.960938 2 -1.613281 1.53125 -2.4375 C 1.0625 -3.269531 0.828125 -4.207031 0.828125 -5.25 C 0.828125 -6.289062 1.0625 -7.222656 1.53125 -8.046875 C 2 -8.867188 2.632812 -9.519531 3.4375 -10 C 4.25 -10.476562 5.179688 -10.71875 6.234375 -10.71875 C 7.078125 -10.71875 7.847656 -10.554688 8.546875 -10.234375 C 9.242188 -9.910156 9.835938 -9.460938 10.328125 -8.890625 Z M 6.34375 -1.359375 C 7.082031 -1.359375 7.742188 -1.53125 8.328125 -1.875 C 8.910156 -2.21875 9.367188 -2.679688 9.703125 -3.265625 C 10.046875 -3.847656 10.21875 -4.507812 10.21875 -5.25 C 10.21875 -5.976562 10.046875 -6.632812 9.703125 -7.21875 C 9.367188 -7.800781 8.910156 -8.265625 8.328125 -8.609375 C 7.742188 -8.953125 7.082031 -9.125 6.34375 -9.125 C 5.613281 -9.125 4.957031 -8.957031 4.375 -8.625 C 3.789062 -8.289062 3.332031 -7.828125 3 -7.234375 C 2.664062 -6.640625 2.5 -5.976562 2.5 -5.25 C 2.5 -4.507812 2.664062 -3.84375 3 -3.25 C 3.332031 -2.664062 3.789062 -2.203125 4.375 -1.859375 C 4.957031 -1.523438 5.613281 -1.359375 6.34375 -1.359375 Z M 6.34375 -1.359375 "/></g></g></g><g fill="#737373" fill-opacity="1"><g transform="translate(308.679285, 335.932185)"><g><path d="M 6.140625 0.234375 C 5.191406 0.234375 4.367188 0.0390625 3.671875 -0.34375 C 2.984375 -0.738281 2.441406 -1.28125 2.046875 -1.96875 C 1.660156 -2.664062 1.46875 -3.484375 1.46875 -4.421875 L 1.46875 -10.484375 L 3.125 -10.484375 L 3.125 -4.703125 C 3.125 -3.660156 3.390625 -2.84375 3.921875 -2.25 C 4.460938 -1.65625 5.203125 -1.359375 6.140625 -1.359375 C 7.066406 -1.359375 7.796875 -1.660156 8.328125 -2.265625 C 8.859375 -2.867188 9.125 -3.679688 9.125 -4.703125 L 9.125 -10.484375 L 10.78125 -10.484375 L 10.78125 -4.421875 C 10.78125 -3.484375 10.59375 -2.664062 10.21875 -1.96875 C 9.84375 -1.28125 9.304688 -0.738281 8.609375 -0.34375 C 7.910156 0.0390625 7.085938 0.234375 6.140625 0.234375 Z M 6.140625 0.234375 "/></g></g></g><g fill="#737373" fill-opacity="1"><g transform="translate(322.567462, 335.932185)"><g><path d="M 11.484375 -5.203125 C 11.484375 -5.097656 11.472656 -5 11.453125 -4.90625 C 11.441406 -4.8125 11.4375 -4.710938 11.4375 -4.609375 L 2.484375 -4.609375 C 2.617188 -3.628906 3.019531 -2.84375 3.6875 -2.25 C 4.363281 -1.664062 5.191406 -1.375 6.171875 -1.375 C 6.898438 -1.375 7.546875 -1.535156 8.109375 -1.859375 C 8.679688 -2.179688 9.128906 -2.628906 9.453125 -3.203125 L 11.1875 -3.203125 C 10.75 -2.117188 10.085938 -1.273438 9.203125 -0.671875 C 8.328125 -0.0664062 7.316406 0.234375 6.171875 0.234375 C 5.160156 0.234375 4.25 -0.00390625 3.4375 -0.484375 C 2.632812 -0.960938 2 -1.613281 1.53125 -2.4375 C 1.0625 -3.269531 0.828125 -4.207031 0.828125 -5.25 C 0.828125 -6.28125 1.0625 -7.207031 1.53125 -8.03125 C 2 -8.863281 2.632812 -9.519531 3.4375 -10 C 4.25 -10.476562 5.160156 -10.71875 6.171875 -10.71875 C 7.234375 -10.71875 8.160156 -10.472656 8.953125 -9.984375 C 9.753906 -9.492188 10.375 -8.828125 10.8125 -7.984375 C 11.257812 -7.148438 11.484375 -6.222656 11.484375 -5.203125 Z M 6.171875 -9.140625 C 5.234375 -9.140625 4.4375 -8.863281 3.78125 -8.3125 C 3.125 -7.769531 2.707031 -7.046875 2.53125 -6.140625 L 9.8125 -6.140625 C 9.644531 -7.066406 9.226562 -7.796875 8.5625 -8.328125 C 7.90625 -8.867188 7.109375 -9.140625 6.171875 -9.140625 Z M 6.171875 -9.140625 "/></g></g></g><g fill="#737373" fill-opacity="1"><g transform="translate(336.455639, 335.932185)"><g><path d="M 6.453125 -10.546875 L 7.375 -10.546875 L 7.375 -8.96875 L 6.3125 -8.96875 C 5.351562 -8.96875 4.613281 -8.675781 4.09375 -8.09375 C 3.582031 -7.507812 3.328125 -6.707031 3.328125 -5.6875 L 3.328125 0 L 1.671875 0 L 1.671875 -10.484375 L 2.828125 -10.484375 L 3.109375 -8.890625 C 3.484375 -9.421875 3.945312 -9.828125 4.5 -10.109375 C 5.050781 -10.398438 5.703125 -10.546875 6.453125 -10.546875 Z M 6.453125 -10.546875 "/></g></g></g><path stroke-linecap="butt" transform="matrix(0.9375, 0, 0, 0.9375, 44.979314, 308.881297)" fill="none" stroke-linejoin="miter" d="M 0.00123222 0.501616 L 302.863752 0.501616 " stroke="#ff3600" stroke-width="1" stroke-opacity="1" stroke-miterlimit="4"/></svg>