<svg xmlns="http://www.w3.org/2000/svg" xmlns:xlink="http://www.w3.org/1999/xlink" width="500" zoomAndPan="magnify" viewBox="0 0 375 374.999991" height="500" preserveAspectRatio="xMidYMid meet" version="1.0"><defs><g/><clipPath id="2f1012ebb5"><path d="M 27.007812 161.464844 L 96 161.464844 L 96 228 L 27.007812 228 Z M 27.007812 161.464844 " clip-rule="nonzero"/></clipPath></defs><g clip-path="url(#2f1012ebb5)"><path fill="#ff3600" d="M 77.109375 198.664062 C 82.976562 198.664062 87.773438 203.460938 87.773438 209.320312 C 87.773438 215.1875 82.976562 219.984375 77.109375 219.984375 L 49.933594 219.984375 C 47.753906 219.984375 45.964844 221.765625 45.964844 223.953125 C 45.964844 226.132812 47.753906 227.921875 49.933594 227.921875 L 77.109375 227.921875 C 87.332031 227.921875 95.703125 219.554688 95.703125 209.320312 C 95.703125 203.402344 92.898438 198.105469 88.558594 194.695312 C 92.898438 191.285156 95.703125 185.980469 95.703125 180.0625 C 95.703125 169.835938 87.332031 161.464844 77.109375 161.464844 L 49.933594 161.464844 C 47.753906 161.464844 45.964844 163.25 45.964844 165.433594 C 45.964844 167.613281 47.753906 169.402344 49.933594 169.402344 L 77.109375 169.402344 C 82.976562 169.402344 87.773438 174.199219 87.773438 180.0625 C 87.773438 185.929688 82.976562 190.726562 77.109375 190.726562 L 57.230469 190.726562 C 55.042969 190.726562 53.261719 192.507812 53.261719 194.695312 C 53.261719 196.875 55.042969 198.664062 57.230469 198.664062 Z M 43.449219 213.289062 L 76.421875 213.289062 C 78.601562 213.289062 80.390625 211.507812 80.390625 209.320312 C 80.390625 207.140625 78.601562 205.351562 76.421875 205.351562 L 40.890625 205.351562 C 38.710938 205.351562 36.929688 207.140625 36.929688 209.320312 C 36.929688 211.507812 38.710938 213.289062 40.890625 213.289062 Z M 43.449219 184.03125 L 76.421875 184.03125 C 78.601562 184.03125 80.390625 182.246094 80.390625 180.0625 C 80.390625 177.882812 78.601562 176.09375 76.421875 176.09375 L 40.890625 176.09375 C 38.710938 176.09375 36.929688 177.882812 36.929688 180.0625 C 36.929688 182.246094 38.710938 184.03125 40.890625 184.03125 Z M 47.460938 194.695312 C 47.460938 192.507812 45.675781 190.726562 43.5 190.726562 L 30.976562 190.726562 C 28.789062 190.726562 27.007812 192.507812 27.007812 194.695312 C 27.007812 196.875 28.789062 198.664062 30.976562 198.664062 L 43.5 198.664062 C 45.675781 198.664062 47.460938 196.875 47.460938 194.695312 Z M 47.460938 194.695312 " fill-opacity="1" fill-rule="evenodd"/></g><g fill="#100f0d" fill-opacity="1"><g transform="translate(105.29999, 197.279341)"><g><path d="M 11.984375 0 L 1.859375 0 L 1.859375 -23.703125 L 11.5625 -23.703125 C 14.6875 -23.703125 16.898438 -23.019531 18.203125 -21.65625 C 19.128906 -20.695312 19.59375 -19.398438 19.59375 -17.765625 C 19.59375 -15.097656 18.539062 -13.328125 16.4375 -12.453125 C 17.84375 -12.140625 18.921875 -11.515625 19.671875 -10.578125 C 20.429688 -9.648438 20.8125 -8.460938 20.8125 -7.015625 C 20.8125 -5.859375 20.582031 -4.816406 20.125 -3.890625 C 19.664062 -2.972656 19.109375 -2.253906 18.453125 -1.734375 C 17.679688 -1.160156 16.851562 -0.753906 15.96875 -0.515625 C 15.09375 -0.273438 14.285156 -0.128906 13.546875 -0.078125 C 12.816406 -0.0234375 12.296875 0 11.984375 0 Z M 7.421875 -18.734375 L 7.421875 -14.140625 L 11.09375 -14.140625 C 13.0625 -14.140625 14.046875 -14.914062 14.046875 -16.46875 C 14.046875 -17.226562 13.796875 -17.796875 13.296875 -18.171875 C 13.023438 -18.378906 12.664062 -18.523438 12.21875 -18.609375 C 11.78125 -18.691406 11.15625 -18.734375 10.34375 -18.734375 Z M 7.421875 -9.78125 L 7.421875 -4.96875 L 11.28125 -4.96875 C 11.976562 -4.96875 12.609375 -5.015625 13.171875 -5.109375 C 13.734375 -5.203125 14.1875 -5.394531 14.53125 -5.6875 C 15.007812 -6.0625 15.25 -6.660156 15.25 -7.484375 C 15.25 -8.460938 14.9375 -9.085938 14.3125 -9.359375 C 13.695312 -9.640625 12.816406 -9.78125 11.671875 -9.78125 Z M 7.421875 -9.78125 "/></g></g></g><g fill="#100f0d" fill-opacity="1"><g transform="translate(130.920495, 197.279341)"><g><path d="M 7.421875 0 L 1.859375 0 L 1.859375 -23.703125 L 7.421875 -23.703125 Z M 7.421875 0 "/></g></g></g><g fill="#100f0d" fill-opacity="1"><g transform="translate(144.025993, 197.279341)"><g><path d="M 7.421875 0 L 1.859375 0 L 1.859375 -23.703125 L 7.515625 -23.703125 L 16.625 -9.3125 L 16.625 -23.703125 L 22.171875 -23.703125 L 22.171875 0 L 16.53125 0 L 7.421875 -14.46875 Z M 7.421875 0 "/></g></g></g><g fill="#100f0d" fill-opacity="1"><g transform="translate(171.851385, 197.279341)"><g><path d="M 5.96875 0 L 0.0625 0 L 8.171875 -23.703125 L 14.203125 -23.703125 L 22.296875 0 L 16.40625 0 L 15.125 -4.25 L 7.234375 -4.25 Z M 11.1875 -17.515625 L 8.703125 -9.0625 L 13.671875 -9.0625 Z M 11.1875 -17.515625 "/></g></g></g><g fill="#100f0d" fill-opacity="1"><g transform="translate(197.999829, 197.279341)"><g><path d="M 17.140625 -10.15625 L 21.25 0 L 15.375 0 L 11.921875 -9.125 L 7.421875 -9.125 L 7.421875 0 L 1.859375 0 L 1.859375 -23.703125 L 13.046875 -23.703125 C 14.492188 -23.703125 15.78125 -23.460938 16.90625 -22.984375 C 18.039062 -22.503906 18.925781 -21.742188 19.5625 -20.703125 C 20.207031 -19.660156 20.53125 -18.28125 20.53125 -16.5625 C 20.53125 -15.039062 20.222656 -13.742188 19.609375 -12.671875 C 19.003906 -11.597656 18.179688 -10.757812 17.140625 -10.15625 Z M 12.265625 -18.734375 L 7.421875 -18.734375 L 7.421875 -13.953125 L 12.265625 -13.953125 C 14.109375 -13.953125 15.03125 -14.757812 15.03125 -16.375 C 15.03125 -17.945312 14.109375 -18.734375 12.265625 -18.734375 Z M 12.265625 -18.734375 "/></g></g></g><g fill="#100f0d" fill-opacity="1"><g transform="translate(223.775607, 197.279341)"><g><path d="M 14.078125 0 L 8.234375 0 L 8.234375 -9.40625 L -0.25 -23.703125 L 6.25 -23.703125 L 11.15625 -14.78125 L 16.0625 -23.703125 L 22.546875 -23.703125 L 14.078125 -9.40625 Z M 14.078125 0 "/></g></g></g><g fill="#100f0d" fill-opacity="1"><g transform="translate(113.639485, 218.713697)"><g><path d="M 8.40625 0 L 1.15625 0 L 1.15625 -11.203125 L 8.40625 -11.203125 L 8.40625 -9.984375 L 2.515625 -9.984375 L 2.515625 -6.234375 L 7.71875 -6.234375 L 7.71875 -5.015625 L 2.515625 -5.015625 L 2.515625 -1.21875 L 8.40625 -1.21875 Z M 8.40625 0 "/></g></g></g><g fill="#100f0d" fill-opacity="1"><g transform="translate(134.441739, 218.713697)"><g><path d="M 5.90625 0.140625 C 5.019531 0.140625 4.25 -0.0078125 3.59375 -0.3125 C 2.945312 -0.625 2.410156 -1.046875 1.984375 -1.578125 C 1.554688 -2.117188 1.238281 -2.734375 1.03125 -3.421875 C 0.832031 -4.117188 0.734375 -4.847656 0.734375 -5.609375 C 0.734375 -6.367188 0.832031 -7.09375 1.03125 -7.78125 C 1.238281 -8.46875 1.554688 -9.078125 1.984375 -9.609375 C 2.410156 -10.148438 2.945312 -10.578125 3.59375 -10.890625 C 4.25 -11.203125 5.019531 -11.359375 5.90625 -11.359375 C 6.738281 -11.359375 7.46875 -11.21875 8.09375 -10.9375 C 8.726562 -10.664062 9.238281 -10.285156 9.625 -9.796875 C 10.019531 -9.304688 10.273438 -8.742188 10.390625 -8.109375 L 8.921875 -8.109375 C 8.773438 -8.734375 8.429688 -9.226562 7.890625 -9.59375 C 7.359375 -9.96875 6.6875 -10.15625 5.875 -10.15625 C 5.039062 -10.15625 4.34375 -9.957031 3.78125 -9.5625 C 3.21875 -9.164062 2.789062 -8.625 2.5 -7.9375 C 2.21875 -7.257812 2.078125 -6.484375 2.078125 -5.609375 C 2.078125 -4.734375 2.21875 -3.953125 2.5 -3.265625 C 2.789062 -2.578125 3.21875 -2.035156 3.78125 -1.640625 C 4.34375 -1.253906 5.039062 -1.0625 5.875 -1.0625 C 6.6875 -1.0625 7.359375 -1.253906 7.890625 -1.640625 C 8.429688 -2.035156 8.773438 -2.617188 8.921875 -3.390625 L 10.390625 -3.390625 C 10.210938 -2.304688 9.734375 -1.445312 8.953125 -0.8125 C 8.171875 -0.175781 7.15625 0.140625 5.90625 0.140625 Z M 5.90625 0.140625 "/></g></g></g><g fill="#100f0d" fill-opacity="1"><g transform="translate(157.182232, 218.713697)"><g><path d="M 2.515625 0 L 1.15625 0 L 1.15625 -11.203125 L 2.515625 -11.203125 L 2.515625 -6.25 L 8.125 -6.25 L 8.125 -11.203125 L 9.46875 -11.203125 L 9.46875 0 L 8.125 0 L 8.125 -5.03125 L 2.515625 -5.03125 Z M 2.515625 0 "/></g></g></g><g fill="#100f0d" fill-opacity="1"><g transform="translate(179.585007, 218.713697)"><g><path d="M 5.9375 0.140625 C 5.050781 0.140625 4.28125 -0.0078125 3.625 -0.3125 C 2.976562 -0.625 2.4375 -1.046875 2 -1.578125 C 1.570312 -2.117188 1.253906 -2.734375 1.046875 -3.421875 C 0.835938 -4.117188 0.734375 -4.847656 0.734375 -5.609375 C 0.734375 -6.367188 0.835938 -7.09375 1.046875 -7.78125 C 1.253906 -8.476562 1.570312 -9.09375 2 -9.625 C 2.4375 -10.15625 2.976562 -10.578125 3.625 -10.890625 C 4.28125 -11.203125 5.050781 -11.359375 5.9375 -11.359375 C 6.820312 -11.359375 7.59375 -11.203125 8.25 -10.890625 C 8.90625 -10.578125 9.445312 -10.15625 9.875 -9.625 C 10.3125 -9.09375 10.632812 -8.476562 10.84375 -7.78125 C 11.050781 -7.09375 11.15625 -6.367188 11.15625 -5.609375 C 11.15625 -4.847656 11.050781 -4.117188 10.84375 -3.421875 C 10.632812 -2.734375 10.3125 -2.117188 9.875 -1.578125 C 9.445312 -1.046875 8.90625 -0.625 8.25 -0.3125 C 7.59375 -0.0078125 6.820312 0.140625 5.9375 0.140625 Z M 5.9375 -1.078125 C 6.78125 -1.078125 7.488281 -1.269531 8.0625 -1.65625 C 8.644531 -2.050781 9.082031 -2.585938 9.375 -3.265625 C 9.664062 -3.953125 9.8125 -4.734375 9.8125 -5.609375 C 9.8125 -6.484375 9.664062 -7.257812 9.375 -7.9375 C 9.082031 -8.613281 8.644531 -9.148438 8.0625 -9.546875 C 7.488281 -9.941406 6.78125 -10.140625 5.9375 -10.140625 C 5.113281 -10.140625 4.414062 -9.941406 3.84375 -9.546875 C 3.269531 -9.148438 2.832031 -8.613281 2.53125 -7.9375 C 2.226562 -7.257812 2.078125 -6.484375 2.078125 -5.609375 C 2.078125 -4.734375 2.226562 -3.953125 2.53125 -3.265625 C 2.832031 -2.585938 3.269531 -2.050781 3.84375 -1.65625 C 4.414062 -1.269531 5.113281 -1.078125 5.9375 -1.078125 Z M 5.9375 -1.078125 "/></g></g></g><g fill="#100f0d" fill-opacity="1"><g transform="translate(203.250575, 218.713697)"><g><path d="M 8.40625 0 L 1.15625 0 L 1.15625 -11.203125 L 8.40625 -11.203125 L 8.40625 -9.984375 L 2.515625 -9.984375 L 2.515625 -6.234375 L 7.71875 -6.234375 L 7.71875 -5.015625 L 2.515625 -5.015625 L 2.515625 -1.21875 L 8.40625 -1.21875 Z M 8.40625 0 "/></g></g></g><g fill="#100f0d" fill-opacity="1"><g transform="translate(224.052831, 218.713697)"><g><path d="M 5.21875 0.140625 C 4.476562 0.140625 3.78125 0.0195312 3.125 -0.21875 C 2.46875 -0.457031 1.914062 -0.835938 1.46875 -1.359375 C 1.03125 -1.878906 0.742188 -2.554688 0.609375 -3.390625 L 1.984375 -3.390625 C 2.097656 -2.796875 2.328125 -2.328125 2.671875 -1.984375 C 3.015625 -1.648438 3.414062 -1.410156 3.875 -1.265625 C 4.34375 -1.128906 4.804688 -1.0625 5.265625 -1.0625 C 6.054688 -1.0625 6.671875 -1.222656 7.109375 -1.546875 C 7.554688 -1.878906 7.78125 -2.378906 7.78125 -3.046875 C 7.78125 -3.441406 7.691406 -3.765625 7.515625 -4.015625 C 7.347656 -4.273438 7.117188 -4.484375 6.828125 -4.640625 C 6.535156 -4.796875 6.203125 -4.921875 5.828125 -5.015625 C 5.460938 -5.117188 5.082031 -5.210938 4.6875 -5.296875 C 4.25 -5.390625 3.816406 -5.492188 3.390625 -5.609375 C 2.960938 -5.722656 2.570312 -5.882812 2.21875 -6.09375 C 1.875 -6.300781 1.597656 -6.578125 1.390625 -6.921875 C 1.179688 -7.273438 1.078125 -7.722656 1.078125 -8.265625 C 1.078125 -8.898438 1.226562 -9.445312 1.53125 -9.90625 C 1.84375 -10.375 2.269531 -10.734375 2.8125 -10.984375 C 3.363281 -11.234375 4.007812 -11.359375 4.75 -11.359375 C 5.382812 -11.359375 5.988281 -11.242188 6.5625 -11.015625 C 7.132812 -10.796875 7.625 -10.453125 8.03125 -9.984375 C 8.4375 -9.515625 8.695312 -8.894531 8.8125 -8.125 L 7.5 -8.125 C 7.394531 -8.632812 7.195312 -9.035156 6.90625 -9.328125 C 6.625 -9.617188 6.289062 -9.828125 5.90625 -9.953125 C 5.53125 -10.085938 5.140625 -10.15625 4.734375 -10.15625 C 3.972656 -10.15625 3.394531 -9.992188 3 -9.671875 C 2.613281 -9.347656 2.421875 -8.921875 2.421875 -8.390625 C 2.421875 -7.941406 2.554688 -7.59375 2.828125 -7.34375 C 3.097656 -7.09375 3.445312 -6.898438 3.875 -6.765625 C 4.3125 -6.628906 4.78125 -6.507812 5.28125 -6.40625 C 5.75 -6.300781 6.207031 -6.1875 6.65625 -6.0625 C 7.113281 -5.9375 7.523438 -5.757812 7.890625 -5.53125 C 8.265625 -5.3125 8.566406 -5.007812 8.796875 -4.625 C 9.023438 -4.238281 9.140625 -3.738281 9.140625 -3.125 C 9.140625 -2.132812 8.804688 -1.34375 8.140625 -0.75 C 7.472656 -0.15625 6.5 0.140625 5.21875 0.140625 Z M 5.21875 0.140625 "/></g></g></g><path stroke-linecap="butt" transform="matrix(0, 0.75, -0.75, 0, 255.071297, 167.388855)" fill="none" stroke-linejoin="miter" d="M 0.00235946 0.501312 L 72.476323 0.501312 " stroke="#ff3600" stroke-width="1" stroke-opacity="1" stroke-miterlimit="4"/><g fill="#100f0d" fill-opacity="1"><g transform="translate(259.702283, 184.518269)"><g><path d="M 6.328125 0.171875 C 5.515625 0.171875 4.769531 0.0351562 4.09375 -0.234375 C 3.414062 -0.515625 2.820312 -0.90625 2.3125 -1.40625 C 1.8125 -1.90625 1.425781 -2.5 1.15625 -3.1875 C 0.882812 -3.875 0.75 -4.625 0.75 -5.4375 C 0.75 -6.257812 0.882812 -7.007812 1.15625 -7.6875 C 1.425781 -8.375 1.8125 -8.96875 2.3125 -9.46875 C 2.820312 -9.976562 3.414062 -10.367188 4.09375 -10.640625 C 4.769531 -10.910156 5.515625 -11.046875 6.328125 -11.046875 C 7.171875 -11.046875 7.941406 -10.890625 8.640625 -10.578125 C 9.335938 -10.265625 9.929688 -9.816406 10.421875 -9.234375 C 10.910156 -8.660156 11.257812 -7.984375 11.46875 -7.203125 L 10.09375 -7.203125 C 9.800781 -7.984375 9.320312 -8.597656 8.65625 -9.046875 C 8 -9.492188 7.222656 -9.71875 6.328125 -9.71875 C 5.515625 -9.71875 4.789062 -9.535156 4.15625 -9.171875 C 3.53125 -8.804688 3.035156 -8.300781 2.671875 -7.65625 C 2.316406 -7.007812 2.140625 -6.269531 2.140625 -5.4375 C 2.140625 -4.601562 2.316406 -3.863281 2.671875 -3.21875 C 3.035156 -2.570312 3.53125 -2.066406 4.15625 -1.703125 C 4.789062 -1.347656 5.515625 -1.171875 6.328125 -1.171875 C 7.242188 -1.171875 8.035156 -1.40625 8.703125 -1.875 C 9.378906 -2.34375 9.859375 -3 10.140625 -3.84375 L 11.53125 -3.84375 C 11.320312 -3.019531 10.96875 -2.304688 10.46875 -1.703125 C 9.976562 -1.109375 9.378906 -0.644531 8.671875 -0.3125 C 7.960938 0.0078125 7.179688 0.171875 6.328125 0.171875 Z M 6.328125 0.171875 "/></g></g></g><g fill="#100f0d" fill-opacity="1"><g transform="translate(271.760636, 184.518269)"><g><path d="M 5.109375 0.1875 C 4.265625 0.1875 3.503906 -0.00390625 2.828125 -0.390625 C 2.160156 -0.773438 1.632812 -1.296875 1.25 -1.953125 C 0.863281 -2.609375 0.671875 -3.359375 0.671875 -4.203125 C 0.671875 -5.035156 0.863281 -5.785156 1.25 -6.453125 C 1.632812 -7.117188 2.160156 -7.640625 2.828125 -8.015625 C 3.503906 -8.390625 4.265625 -8.578125 5.109375 -8.578125 C 5.960938 -8.578125 6.722656 -8.382812 7.390625 -8 C 8.066406 -7.625 8.597656 -7.101562 8.984375 -6.4375 C 9.378906 -5.78125 9.578125 -5.035156 9.578125 -4.203125 C 9.578125 -3.359375 9.378906 -2.609375 8.984375 -1.953125 C 8.597656 -1.296875 8.066406 -0.773438 7.390625 -0.390625 C 6.722656 -0.00390625 5.960938 0.1875 5.109375 0.1875 Z M 5.109375 -1.09375 C 5.710938 -1.09375 6.25 -1.222656 6.71875 -1.484375 C 7.1875 -1.753906 7.550781 -2.125 7.8125 -2.59375 C 8.082031 -3.0625 8.21875 -3.597656 8.21875 -4.203125 C 8.21875 -4.796875 8.082031 -5.328125 7.8125 -5.796875 C 7.550781 -6.265625 7.1875 -6.632812 6.71875 -6.90625 C 6.25 -7.175781 5.710938 -7.3125 5.109375 -7.3125 C 4.515625 -7.3125 3.984375 -7.175781 3.515625 -6.90625 C 3.046875 -6.632812 2.675781 -6.265625 2.40625 -5.796875 C 2.144531 -5.328125 2.015625 -4.796875 2.015625 -4.203125 C 2.015625 -3.597656 2.144531 -3.0625 2.40625 -2.59375 C 2.675781 -2.125 3.046875 -1.753906 3.515625 -1.484375 C 3.992188 -1.222656 4.523438 -1.09375 5.109375 -1.09375 Z M 5.109375 -1.09375 "/></g></g></g><g fill="#100f0d" fill-opacity="1"><g transform="translate(282.000912, 184.518269)"><g><path d="M 5.53125 -8.578125 C 6.195312 -8.578125 6.769531 -8.425781 7.25 -8.125 C 7.738281 -7.820312 8.113281 -7.398438 8.375 -6.859375 C 8.632812 -6.316406 8.765625 -5.703125 8.765625 -5.015625 L 8.765625 0 L 7.453125 0 L 7.453125 -4.703125 C 7.453125 -5.566406 7.253906 -6.226562 6.859375 -6.6875 C 6.472656 -7.144531 5.914062 -7.375 5.1875 -7.375 C 4.71875 -7.375 4.289062 -7.25 3.90625 -7 C 3.519531 -6.757812 3.210938 -6.425781 2.984375 -6 C 2.765625 -5.570312 2.65625 -5.101562 2.65625 -4.59375 L 2.65625 0 L 1.34375 0 L 1.34375 -8.390625 L 2.265625 -8.390625 L 2.53125 -7.078125 C 2.84375 -7.535156 3.257812 -7.898438 3.78125 -8.171875 C 4.300781 -8.441406 4.882812 -8.578125 5.53125 -8.578125 Z M 5.53125 -8.578125 "/></g></g></g><g fill="#100f0d" fill-opacity="1"><g transform="translate(291.977024, 184.518269)"><g><path d="M 5.53125 -8.578125 C 6.195312 -8.578125 6.769531 -8.425781 7.25 -8.125 C 7.738281 -7.820312 8.113281 -7.398438 8.375 -6.859375 C 8.632812 -6.316406 8.765625 -5.703125 8.765625 -5.015625 L 8.765625 0 L 7.453125 0 L 7.453125 -4.703125 C 7.453125 -5.566406 7.253906 -6.226562 6.859375 -6.6875 C 6.472656 -7.144531 5.914062 -7.375 5.1875 -7.375 C 4.71875 -7.375 4.289062 -7.25 3.90625 -7 C 3.519531 -6.757812 3.210938 -6.425781 2.984375 -6 C 2.765625 -5.570312 2.65625 -5.101562 2.65625 -4.59375 L 2.65625 0 L 1.34375 0 L 1.34375 -8.390625 L 2.265625 -8.390625 L 2.53125 -7.078125 C 2.84375 -7.535156 3.257812 -7.898438 3.78125 -8.171875 C 4.300781 -8.441406 4.882812 -8.578125 5.53125 -8.578125 Z M 5.53125 -8.578125 "/></g></g></g><g fill="#100f0d" fill-opacity="1"><g transform="translate(301.953135, 184.518269)"><g><path d="M 9.1875 -4.171875 C 9.1875 -4.085938 9.179688 -4.003906 9.171875 -3.921875 C 9.160156 -3.847656 9.15625 -3.769531 9.15625 -3.6875 L 1.984375 -3.6875 C 2.085938 -2.90625 2.410156 -2.28125 2.953125 -1.8125 C 3.492188 -1.34375 4.15625 -1.109375 4.9375 -1.109375 C 5.519531 -1.109375 6.039062 -1.234375 6.5 -1.484375 C 6.957031 -1.742188 7.316406 -2.101562 7.578125 -2.5625 L 8.953125 -2.5625 C 8.597656 -1.695312 8.066406 -1.019531 7.359375 -0.53125 C 6.660156 -0.0507812 5.851562 0.1875 4.9375 0.1875 C 4.132812 0.1875 3.40625 -0.00390625 2.75 -0.390625 C 2.101562 -0.773438 1.59375 -1.296875 1.21875 -1.953125 C 0.851562 -2.617188 0.671875 -3.367188 0.671875 -4.203125 C 0.671875 -5.023438 0.851562 -5.769531 1.21875 -6.4375 C 1.59375 -7.101562 2.101562 -7.625 2.75 -8 C 3.40625 -8.382812 4.132812 -8.578125 4.9375 -8.578125 C 5.789062 -8.578125 6.535156 -8.378906 7.171875 -7.984375 C 7.804688 -7.597656 8.300781 -7.066406 8.65625 -6.390625 C 9.007812 -5.722656 9.1875 -4.984375 9.1875 -4.171875 Z M 4.9375 -7.328125 C 4.1875 -7.328125 3.546875 -7.101562 3.015625 -6.65625 C 2.492188 -6.21875 2.160156 -5.632812 2.015625 -4.90625 L 7.84375 -4.90625 C 7.71875 -5.65625 7.390625 -6.242188 6.859375 -6.671875 C 6.328125 -7.109375 5.6875 -7.328125 4.9375 -7.328125 Z M 4.9375 -7.328125 "/></g></g></g><g fill="#100f0d" fill-opacity="1"><g transform="translate(311.773848, 184.518269)"><g><path d="M 5.03125 0.1875 C 4.207031 0.1875 3.460938 -0.00390625 2.796875 -0.390625 C 2.140625 -0.773438 1.617188 -1.296875 1.234375 -1.953125 C 0.859375 -2.617188 0.671875 -3.367188 0.671875 -4.203125 C 0.671875 -5.035156 0.859375 -5.78125 1.234375 -6.4375 C 1.617188 -7.101562 2.140625 -7.625 2.796875 -8 C 3.460938 -8.382812 4.207031 -8.578125 5.03125 -8.578125 C 5.695312 -8.578125 6.304688 -8.453125 6.859375 -8.203125 C 7.421875 -7.953125 7.894531 -7.601562 8.28125 -7.15625 C 8.664062 -6.707031 8.941406 -6.175781 9.109375 -5.5625 L 7.796875 -5.5625 C 7.554688 -6.101562 7.1875 -6.53125 6.6875 -6.84375 C 6.195312 -7.15625 5.644531 -7.3125 5.03125 -7.3125 C 4.457031 -7.3125 3.941406 -7.171875 3.484375 -6.890625 C 3.023438 -6.617188 2.664062 -6.242188 2.40625 -5.765625 C 2.144531 -5.296875 2.015625 -4.773438 2.015625 -4.203125 C 2.015625 -3.617188 2.144531 -3.085938 2.40625 -2.609375 C 2.675781 -2.140625 3.039062 -1.769531 3.5 -1.5 C 3.957031 -1.226562 4.46875 -1.09375 5.03125 -1.09375 C 5.644531 -1.09375 6.191406 -1.25 6.671875 -1.5625 C 7.160156 -1.875 7.53125 -2.3125 7.78125 -2.875 L 9.125 -2.875 C 8.957031 -2.25 8.675781 -1.707031 8.28125 -1.25 C 7.894531 -0.800781 7.421875 -0.445312 6.859375 -0.1875 C 6.296875 0.0625 5.6875 0.1875 5.03125 0.1875 Z M 5.03125 0.1875 "/></g></g></g><g fill="#100f0d" fill-opacity="1"><g transform="translate(321.40809, 184.518269)"><g><path d="M 4.796875 -1.234375 L 5.71875 -1.234375 L 5.71875 0 L 4.640625 0 C 3.734375 0 3.019531 -0.257812 2.5 -0.78125 C 1.976562 -1.300781 1.71875 -2.019531 1.71875 -2.9375 L 1.71875 -7.203125 L 0.25 -7.203125 L 0.25 -7.4375 L 2.84375 -10.171875 L 3.046875 -10.171875 L 3.046875 -8.390625 L 5.671875 -8.390625 L 5.671875 -7.203125 L 3.046875 -7.203125 L 3.046875 -2.984375 C 3.046875 -2.410156 3.195312 -1.972656 3.5 -1.671875 C 3.800781 -1.378906 4.234375 -1.234375 4.796875 -1.234375 Z M 4.796875 -1.234375 "/></g></g></g><g fill="#100f0d" fill-opacity="1"><g transform="translate(327.56556, 184.518269)"><g/></g></g><g fill="#100f0d" fill-opacity="1"><g transform="translate(259.702283, 200.268268)"><g><path d="M 6.328125 0.171875 C 5.515625 0.171875 4.769531 0.0351562 4.09375 -0.234375 C 3.414062 -0.515625 2.820312 -0.90625 2.3125 -1.40625 C 1.8125 -1.90625 1.425781 -2.5 1.15625 -3.1875 C 0.882812 -3.875 0.75 -4.625 0.75 -5.4375 C 0.75 -6.257812 0.882812 -7.007812 1.15625 -7.6875 C 1.425781 -8.375 1.8125 -8.96875 2.3125 -9.46875 C 2.820312 -9.976562 3.414062 -10.367188 4.09375 -10.640625 C 4.769531 -10.910156 5.515625 -11.046875 6.328125 -11.046875 C 7.171875 -11.046875 7.941406 -10.890625 8.640625 -10.578125 C 9.335938 -10.265625 9.929688 -9.816406 10.421875 -9.234375 C 10.910156 -8.660156 11.257812 -7.984375 11.46875 -7.203125 L 10.09375 -7.203125 C 9.800781 -7.984375 9.320312 -8.597656 8.65625 -9.046875 C 8 -9.492188 7.222656 -9.71875 6.328125 -9.71875 C 5.515625 -9.71875 4.789062 -9.535156 4.15625 -9.171875 C 3.53125 -8.804688 3.035156 -8.300781 2.671875 -7.65625 C 2.316406 -7.007812 2.140625 -6.269531 2.140625 -5.4375 C 2.140625 -4.601562 2.316406 -3.863281 2.671875 -3.21875 C 3.035156 -2.570312 3.53125 -2.066406 4.15625 -1.703125 C 4.789062 -1.347656 5.515625 -1.171875 6.328125 -1.171875 C 7.242188 -1.171875 8.035156 -1.40625 8.703125 -1.875 C 9.378906 -2.34375 9.859375 -3 10.140625 -3.84375 L 11.53125 -3.84375 C 11.320312 -3.019531 10.96875 -2.304688 10.46875 -1.703125 C 9.976562 -1.109375 9.378906 -0.644531 8.671875 -0.3125 C 7.960938 0.0078125 7.179688 0.171875 6.328125 0.171875 Z M 6.328125 0.171875 "/></g></g></g><g fill="#100f0d" fill-opacity="1"><g transform="translate(271.760636, 200.268268)"><g><path d="M 5.109375 0.1875 C 4.265625 0.1875 3.503906 -0.00390625 2.828125 -0.390625 C 2.160156 -0.773438 1.632812 -1.296875 1.25 -1.953125 C 0.863281 -2.609375 0.671875 -3.359375 0.671875 -4.203125 C 0.671875 -5.035156 0.863281 -5.785156 1.25 -6.453125 C 1.632812 -7.117188 2.160156 -7.640625 2.828125 -8.015625 C 3.503906 -8.390625 4.265625 -8.578125 5.109375 -8.578125 C 5.960938 -8.578125 6.722656 -8.382812 7.390625 -8 C 8.066406 -7.625 8.597656 -7.101562 8.984375 -6.4375 C 9.378906 -5.78125 9.578125 -5.035156 9.578125 -4.203125 C 9.578125 -3.359375 9.378906 -2.609375 8.984375 -1.953125 C 8.597656 -1.296875 8.066406 -0.773438 7.390625 -0.390625 C 6.722656 -0.00390625 5.960938 0.1875 5.109375 0.1875 Z M 5.109375 -1.09375 C 5.710938 -1.09375 6.25 -1.222656 6.71875 -1.484375 C 7.1875 -1.753906 7.550781 -2.125 7.8125 -2.59375 C 8.082031 -3.0625 8.21875 -3.597656 8.21875 -4.203125 C 8.21875 -4.796875 8.082031 -5.328125 7.8125 -5.796875 C 7.550781 -6.265625 7.1875 -6.632812 6.71875 -6.90625 C 6.25 -7.175781 5.710938 -7.3125 5.109375 -7.3125 C 4.515625 -7.3125 3.984375 -7.175781 3.515625 -6.90625 C 3.046875 -6.632812 2.675781 -6.265625 2.40625 -5.796875 C 2.144531 -5.328125 2.015625 -4.796875 2.015625 -4.203125 C 2.015625 -3.597656 2.144531 -3.0625 2.40625 -2.59375 C 2.675781 -2.125 3.046875 -1.753906 3.515625 -1.484375 C 3.992188 -1.222656 4.523438 -1.09375 5.109375 -1.09375 Z M 5.109375 -1.09375 "/></g></g></g><g fill="#100f0d" fill-opacity="1"><g transform="translate(282.000912, 200.268268)"><g><path d="M 5.53125 -8.578125 C 6.195312 -8.578125 6.769531 -8.425781 7.25 -8.125 C 7.738281 -7.820312 8.113281 -7.398438 8.375 -6.859375 C 8.632812 -6.316406 8.765625 -5.703125 8.765625 -5.015625 L 8.765625 0 L 7.453125 0 L 7.453125 -4.703125 C 7.453125 -5.566406 7.253906 -6.226562 6.859375 -6.6875 C 6.472656 -7.144531 5.914062 -7.375 5.1875 -7.375 C 4.71875 -7.375 4.289062 -7.25 3.90625 -7 C 3.519531 -6.757812 3.210938 -6.425781 2.984375 -6 C 2.765625 -5.570312 2.65625 -5.101562 2.65625 -4.59375 L 2.65625 0 L 1.34375 0 L 1.34375 -8.390625 L 2.265625 -8.390625 L 2.53125 -7.078125 C 2.84375 -7.535156 3.257812 -7.898438 3.78125 -8.171875 C 4.300781 -8.441406 4.882812 -8.578125 5.53125 -8.578125 Z M 5.53125 -8.578125 "/></g></g></g><g fill="#100f0d" fill-opacity="1"><g transform="translate(291.977024, 200.268268)"><g><path d="M 7.265625 -8.390625 L 8.609375 -8.390625 L 5.0625 0 L 3.875 0 L 0.234375 -8.390625 L 1.609375 -8.390625 L 4.46875 -1.703125 Z M 7.265625 -8.390625 "/></g></g></g><g fill="#100f0d" fill-opacity="1"><g transform="translate(300.865397, 200.268268)"><g><path d="M 9.1875 -4.171875 C 9.1875 -4.085938 9.179688 -4.003906 9.171875 -3.921875 C 9.160156 -3.847656 9.15625 -3.769531 9.15625 -3.6875 L 1.984375 -3.6875 C 2.085938 -2.90625 2.410156 -2.28125 2.953125 -1.8125 C 3.492188 -1.34375 4.15625 -1.109375 4.9375 -1.109375 C 5.519531 -1.109375 6.039062 -1.234375 6.5 -1.484375 C 6.957031 -1.742188 7.316406 -2.101562 7.578125 -2.5625 L 8.953125 -2.5625 C 8.597656 -1.695312 8.066406 -1.019531 7.359375 -0.53125 C 6.660156 -0.0507812 5.851562 0.1875 4.9375 0.1875 C 4.132812 0.1875 3.40625 -0.00390625 2.75 -0.390625 C 2.101562 -0.773438 1.59375 -1.296875 1.21875 -1.953125 C 0.851562 -2.617188 0.671875 -3.367188 0.671875 -4.203125 C 0.671875 -5.023438 0.851562 -5.769531 1.21875 -6.4375 C 1.59375 -7.101562 2.101562 -7.625 2.75 -8 C 3.40625 -8.382812 4.132812 -8.578125 4.9375 -8.578125 C 5.789062 -8.578125 6.535156 -8.378906 7.171875 -7.984375 C 7.804688 -7.597656 8.300781 -7.066406 8.65625 -6.390625 C 9.007812 -5.722656 9.1875 -4.984375 9.1875 -4.171875 Z M 4.9375 -7.328125 C 4.1875 -7.328125 3.546875 -7.101562 3.015625 -6.65625 C 2.492188 -6.21875 2.160156 -5.632812 2.015625 -4.90625 L 7.84375 -4.90625 C 7.71875 -5.65625 7.390625 -6.242188 6.859375 -6.671875 C 6.328125 -7.109375 5.6875 -7.328125 4.9375 -7.328125 Z M 4.9375 -7.328125 "/></g></g></g><g fill="#100f0d" fill-opacity="1"><g transform="translate(310.68611, 200.268268)"><g><path d="M 7.46875 -8.390625 L 8.875 -8.390625 L 4.875 0.34375 C 4.582031 1.007812 4.28125 1.535156 3.96875 1.921875 C 3.664062 2.304688 3.320312 2.582031 2.9375 2.75 C 2.5625 2.914062 2.109375 3 1.578125 3 L 0.796875 3 L 0.796875 1.796875 L 1.484375 1.796875 C 1.847656 1.796875 2.148438 1.75 2.390625 1.65625 C 2.628906 1.5625 2.84375 1.390625 3.03125 1.140625 C 3.226562 0.890625 3.441406 0.53125 3.671875 0.0625 L 3.96875 -0.578125 L 0.234375 -8.390625 L 1.671875 -8.390625 L 4.65625 -2.03125 Z M 7.46875 -8.390625 "/></g></g></g><g fill="#100f0d" fill-opacity="1"><g transform="translate(319.79603, 200.268268)"><g/></g></g><g fill="#100f0d" fill-opacity="1"><g transform="translate(259.702283, 216.018267)"><g><path d="M 6.328125 0.171875 C 5.515625 0.171875 4.769531 0.0351562 4.09375 -0.234375 C 3.414062 -0.515625 2.820312 -0.90625 2.3125 -1.40625 C 1.8125 -1.90625 1.425781 -2.5 1.15625 -3.1875 C 0.882812 -3.875 0.75 -4.625 0.75 -5.4375 C 0.75 -6.257812 0.882812 -7.007812 1.15625 -7.6875 C 1.425781 -8.375 1.8125 -8.96875 2.3125 -9.46875 C 2.820312 -9.976562 3.414062 -10.367188 4.09375 -10.640625 C 4.769531 -10.910156 5.515625 -11.046875 6.328125 -11.046875 C 7.171875 -11.046875 7.941406 -10.890625 8.640625 -10.578125 C 9.335938 -10.265625 9.929688 -9.816406 10.421875 -9.234375 C 10.910156 -8.660156 11.257812 -7.984375 11.46875 -7.203125 L 10.09375 -7.203125 C 9.800781 -7.984375 9.320312 -8.597656 8.65625 -9.046875 C 8 -9.492188 7.222656 -9.71875 6.328125 -9.71875 C 5.515625 -9.71875 4.789062 -9.535156 4.15625 -9.171875 C 3.53125 -8.804688 3.035156 -8.300781 2.671875 -7.65625 C 2.316406 -7.007812 2.140625 -6.269531 2.140625 -5.4375 C 2.140625 -4.601562 2.316406 -3.863281 2.671875 -3.21875 C 3.035156 -2.570312 3.53125 -2.066406 4.15625 -1.703125 C 4.789062 -1.347656 5.515625 -1.171875 6.328125 -1.171875 C 7.242188 -1.171875 8.035156 -1.40625 8.703125 -1.875 C 9.378906 -2.34375 9.859375 -3 10.140625 -3.84375 L 11.53125 -3.84375 C 11.320312 -3.019531 10.96875 -2.304688 10.46875 -1.703125 C 9.976562 -1.109375 9.378906 -0.644531 8.671875 -0.3125 C 7.960938 0.0078125 7.179688 0.171875 6.328125 0.171875 Z M 6.328125 0.171875 "/></g></g></g><g fill="#100f0d" fill-opacity="1"><g transform="translate(271.760636, 216.018267)"><g><path d="M 5.109375 0.1875 C 4.265625 0.1875 3.503906 -0.00390625 2.828125 -0.390625 C 2.160156 -0.773438 1.632812 -1.296875 1.25 -1.953125 C 0.863281 -2.609375 0.671875 -3.359375 0.671875 -4.203125 C 0.671875 -5.035156 0.863281 -5.785156 1.25 -6.453125 C 1.632812 -7.117188 2.160156 -7.640625 2.828125 -8.015625 C 3.503906 -8.390625 4.265625 -8.578125 5.109375 -8.578125 C 5.960938 -8.578125 6.722656 -8.382812 7.390625 -8 C 8.066406 -7.625 8.597656 -7.101562 8.984375 -6.4375 C 9.378906 -5.78125 9.578125 -5.035156 9.578125 -4.203125 C 9.578125 -3.359375 9.378906 -2.609375 8.984375 -1.953125 C 8.597656 -1.296875 8.066406 -0.773438 7.390625 -0.390625 C 6.722656 -0.00390625 5.960938 0.1875 5.109375 0.1875 Z M 5.109375 -1.09375 C 5.710938 -1.09375 6.25 -1.222656 6.71875 -1.484375 C 7.1875 -1.753906 7.550781 -2.125 7.8125 -2.59375 C 8.082031 -3.0625 8.21875 -3.597656 8.21875 -4.203125 C 8.21875 -4.796875 8.082031 -5.328125 7.8125 -5.796875 C 7.550781 -6.265625 7.1875 -6.632812 6.71875 -6.90625 C 6.25 -7.175781 5.710938 -7.3125 5.109375 -7.3125 C 4.515625 -7.3125 3.984375 -7.175781 3.515625 -6.90625 C 3.046875 -6.632812 2.675781 -6.265625 2.40625 -5.796875 C 2.144531 -5.328125 2.015625 -4.796875 2.015625 -4.203125 C 2.015625 -3.597656 2.144531 -3.0625 2.40625 -2.59375 C 2.675781 -2.125 3.046875 -1.753906 3.515625 -1.484375 C 3.992188 -1.222656 4.523438 -1.09375 5.109375 -1.09375 Z M 5.109375 -1.09375 "/></g></g></g><g fill="#100f0d" fill-opacity="1"><g transform="translate(282.000912, 216.018267)"><g><path d="M 5.53125 -8.578125 C 6.195312 -8.578125 6.769531 -8.425781 7.25 -8.125 C 7.738281 -7.820312 8.113281 -7.398438 8.375 -6.859375 C 8.632812 -6.316406 8.765625 -5.703125 8.765625 -5.015625 L 8.765625 0 L 7.453125 0 L 7.453125 -4.703125 C 7.453125 -5.566406 7.253906 -6.226562 6.859375 -6.6875 C 6.472656 -7.144531 5.914062 -7.375 5.1875 -7.375 C 4.71875 -7.375 4.289062 -7.25 3.90625 -7 C 3.519531 -6.757812 3.210938 -6.425781 2.984375 -6 C 2.765625 -5.570312 2.65625 -5.101562 2.65625 -4.59375 L 2.65625 0 L 1.34375 0 L 1.34375 -8.390625 L 2.265625 -8.390625 L 2.53125 -7.078125 C 2.84375 -7.535156 3.257812 -7.898438 3.78125 -8.171875 C 4.300781 -8.441406 4.882812 -8.578125 5.53125 -8.578125 Z M 5.53125 -8.578125 "/></g></g></g><g fill="#100f0d" fill-opacity="1"><g transform="translate(291.977024, 216.018267)"><g><path d="M 8.53125 -8.390625 L 9.4375 -8.390625 L 9.4375 3 L 8.109375 3 L 8.109375 -1.125 C 7.734375 -0.71875 7.273438 -0.394531 6.734375 -0.15625 C 6.203125 0.0703125 5.617188 0.1875 4.984375 0.1875 C 4.148438 0.1875 3.40625 -0.00390625 2.75 -0.390625 C 2.101562 -0.773438 1.59375 -1.296875 1.21875 -1.953125 C 0.851562 -2.617188 0.671875 -3.367188 0.671875 -4.203125 C 0.671875 -5.035156 0.851562 -5.78125 1.21875 -6.4375 C 1.59375 -7.101562 2.101562 -7.625 2.75 -8 C 3.40625 -8.382812 4.148438 -8.578125 4.984375 -8.578125 C 5.660156 -8.578125 6.28125 -8.445312 6.84375 -8.1875 C 7.40625 -7.925781 7.878906 -7.570312 8.265625 -7.125 Z M 5.078125 -1.09375 C 5.671875 -1.09375 6.203125 -1.226562 6.671875 -1.5 C 7.140625 -1.769531 7.503906 -2.140625 7.765625 -2.609375 C 8.035156 -3.078125 8.171875 -3.609375 8.171875 -4.203125 C 8.171875 -4.785156 8.035156 -5.3125 7.765625 -5.78125 C 7.503906 -6.25 7.140625 -6.617188 6.671875 -6.890625 C 6.203125 -7.171875 5.671875 -7.3125 5.078125 -7.3125 C 4.492188 -7.3125 3.96875 -7.175781 3.5 -6.90625 C 3.03125 -6.632812 2.660156 -6.257812 2.390625 -5.78125 C 2.128906 -5.3125 2 -4.785156 2 -4.203125 C 2 -3.609375 2.128906 -3.070312 2.390625 -2.59375 C 2.660156 -2.125 3.03125 -1.753906 3.5 -1.484375 C 3.96875 -1.222656 4.492188 -1.09375 5.078125 -1.09375 Z M 5.078125 -1.09375 "/></g></g></g><g fill="#100f0d" fill-opacity="1"><g transform="translate(302.745627, 216.018267)"><g><path d="M 4.90625 0.1875 C 4.15625 0.1875 3.5 0.03125 2.9375 -0.28125 C 2.382812 -0.59375 1.953125 -1.023438 1.640625 -1.578125 C 1.335938 -2.128906 1.1875 -2.785156 1.1875 -3.546875 L 1.1875 -8.390625 L 2.5 -8.390625 L 2.5 -3.765625 C 2.5 -2.929688 2.710938 -2.273438 3.140625 -1.796875 C 3.578125 -1.328125 4.164062 -1.09375 4.90625 -1.09375 C 5.65625 -1.09375 6.242188 -1.332031 6.671875 -1.8125 C 7.097656 -2.289062 7.3125 -2.941406 7.3125 -3.765625 L 7.3125 -8.390625 L 8.625 -8.390625 L 8.625 -3.546875 C 8.625 -2.785156 8.472656 -2.128906 8.171875 -1.578125 C 7.878906 -1.023438 7.453125 -0.59375 6.890625 -0.28125 C 6.328125 0.03125 5.664062 0.1875 4.90625 0.1875 Z M 4.90625 0.1875 "/></g></g></g><g fill="#100f0d" fill-opacity="1"><g transform="translate(312.566339, 216.018267)"><g><path d="M 9.1875 -4.171875 C 9.1875 -4.085938 9.179688 -4.003906 9.171875 -3.921875 C 9.160156 -3.847656 9.15625 -3.769531 9.15625 -3.6875 L 1.984375 -3.6875 C 2.085938 -2.90625 2.410156 -2.28125 2.953125 -1.8125 C 3.492188 -1.34375 4.15625 -1.109375 4.9375 -1.109375 C 5.519531 -1.109375 6.039062 -1.234375 6.5 -1.484375 C 6.957031 -1.742188 7.316406 -2.101562 7.578125 -2.5625 L 8.953125 -2.5625 C 8.597656 -1.695312 8.066406 -1.019531 7.359375 -0.53125 C 6.660156 -0.0507812 5.851562 0.1875 4.9375 0.1875 C 4.132812 0.1875 3.40625 -0.00390625 2.75 -0.390625 C 2.101562 -0.773438 1.59375 -1.296875 1.21875 -1.953125 C 0.851562 -2.617188 0.671875 -3.367188 0.671875 -4.203125 C 0.671875 -5.023438 0.851562 -5.769531 1.21875 -6.4375 C 1.59375 -7.101562 2.101562 -7.625 2.75 -8 C 3.40625 -8.382812 4.132812 -8.578125 4.9375 -8.578125 C 5.789062 -8.578125 6.535156 -8.378906 7.171875 -7.984375 C 7.804688 -7.597656 8.300781 -7.066406 8.65625 -6.390625 C 9.007812 -5.722656 9.1875 -4.984375 9.1875 -4.171875 Z M 4.9375 -7.328125 C 4.1875 -7.328125 3.546875 -7.101562 3.015625 -6.65625 C 2.492188 -6.21875 2.160156 -5.632812 2.015625 -4.90625 L 7.84375 -4.90625 C 7.71875 -5.65625 7.390625 -6.242188 6.859375 -6.671875 C 6.328125 -7.109375 5.6875 -7.328125 4.9375 -7.328125 Z M 4.9375 -7.328125 "/></g></g></g><g fill="#100f0d" fill-opacity="1"><g transform="translate(322.387052, 216.018267)"><g><path d="M 5.15625 -8.4375 L 5.90625 -8.4375 L 5.90625 -7.1875 L 5.046875 -7.1875 C 4.285156 -7.1875 3.695312 -6.953125 3.28125 -6.484375 C 2.863281 -6.015625 2.65625 -5.375 2.65625 -4.5625 L 2.65625 0 L 1.34375 0 L 1.34375 -8.390625 L 2.265625 -8.390625 L 2.484375 -7.125 C 2.785156 -7.550781 3.15625 -7.875 3.59375 -8.09375 C 4.039062 -8.320312 4.5625 -8.4375 5.15625 -8.4375 Z M 5.15625 -8.4375 "/></g></g></g></svg>